<svg width="978" height="798" viewBox="0 0 978 798" fill="none" xmlns="http://www.w3.org/2000/svg">
<path d="M18.0835 797.603H978V0H452.048C382.957 11.1088 324.219 59.7774 323.877 111.999C323.566 159.486 362.199 207.863 339.363 252.258C309.684 309.954 196.029 322.077 161.56 378.301C141.196 411.517 154.786 449.987 165.213 485.626C175.639 521.266 180.712 562.672 148.378 590.226C128.779 606.931 99.2017 614.934 74.6096 627.535C7.17085 662.089 -21.6581 744.563 18.0835 797.603Z" fill="url(#paint0_linear_591_1313)"/>
<path d="M798.241 648.79C791.031 648.79 785.186 654.136 785.186 660.732C785.186 663.536 786.249 666.109 788.019 668.146L786.303 676.747L792.107 671.271C793.936 672.164 796.024 672.673 798.242 672.673C805.452 672.673 811.297 667.327 811.297 660.731C811.297 654.135 805.451 648.79 798.241 648.79Z" stroke="#FFF9EF" stroke-width="2" stroke-miterlimit="10" stroke-linecap="round" stroke-linejoin="round"/>
<path d="M319.055 563.526C326.266 563.526 332.111 568.872 332.111 575.468C332.111 578.272 331.047 580.845 329.278 582.882L330.993 591.484L325.189 586.007C323.36 586.9 321.273 587.409 319.055 587.409C311.845 587.409 306 582.063 306 575.467C306 568.871 311.845 563.526 319.055 563.526Z" stroke="#FFF9EF" stroke-width="2" stroke-miterlimit="10" stroke-linecap="round" stroke-linejoin="round"/>
<path d="M553.916 624.648C546.705 624.648 540.86 629.995 540.86 636.591C540.86 639.395 541.924 641.968 543.693 644.005L541.978 652.606L547.782 647.13C549.611 648.023 551.697 648.532 553.916 648.532C561.126 648.532 566.971 643.185 566.971 636.59C566.971 629.995 561.126 624.648 553.916 624.648Z" stroke="#2A2A68" stroke-width="2" stroke-miterlimit="10" stroke-linecap="round" stroke-linejoin="round"/>
<path d="M323.887 477.6V493.138" stroke="#2A2A68" stroke-width="2" stroke-miterlimit="10" stroke-linecap="round" stroke-linejoin="round"/>
<path d="M316.906 485.369H330.869" stroke="#2A2A68" stroke-width="2" stroke-miterlimit="10" stroke-linecap="round" stroke-linejoin="round"/>
<path d="M583.465 691.366V706.903" stroke="#FFF9EF" stroke-width="2" stroke-miterlimit="10" stroke-linecap="round" stroke-linejoin="round"/>
<path d="M576.484 699.135H590.446" stroke="#FFF9EF" stroke-width="2" stroke-miterlimit="10" stroke-linecap="round" stroke-linejoin="round"/>
<path d="M570.778 507.567V523.104" stroke="#FFF9EF" stroke-width="2" stroke-miterlimit="10" stroke-linecap="round" stroke-linejoin="round"/>
<path d="M563.797 515.336H577.76" stroke="#FFF9EF" stroke-width="2" stroke-miterlimit="10" stroke-linecap="round" stroke-linejoin="round"/>
<path d="M841.02 569.736V585.274" stroke="#2A2A68" stroke-width="2" stroke-miterlimit="10" stroke-linecap="round" stroke-linejoin="round"/>
<path d="M834.038 577.505H848" stroke="#2A2A68" stroke-width="2" stroke-miterlimit="10" stroke-linecap="round" stroke-linejoin="round"/>
<path d="M580.39 561.962C580.39 560.011 578.969 558.43 577.216 558.43C575.463 558.43 574.042 560.011 574.042 561.962C574.042 563.912 575.463 565.493 577.216 565.493C578.969 565.493 580.39 563.912 580.39 561.962Z" stroke="#FFF9EF" stroke-width="2" stroke-miterlimit="10" stroke-linecap="round" stroke-linejoin="round"/>
<path d="M374.77 452.619C374.77 450.668 373.349 449.087 371.596 449.087C369.843 449.087 368.422 450.668 368.422 452.619C368.422 454.57 369.843 456.151 371.596 456.151C373.348 456.151 374.77 454.57 374.77 452.619Z" stroke="#FFF9EF" stroke-width="2" stroke-miterlimit="10" stroke-linecap="round" stroke-linejoin="round"/>
<path d="M346.078 657.461C347.831 657.461 349.252 655.879 349.252 653.929C349.252 651.978 347.831 650.397 346.078 650.397C344.325 650.397 342.904 651.978 342.904 653.929C342.904 655.879 344.325 657.461 346.078 657.461Z" stroke="#2A2A68" stroke-width="2" stroke-miterlimit="10" stroke-linecap="round" stroke-linejoin="round"/>
<path d="M501.671 726.856C503.424 726.856 504.845 725.275 504.845 723.324C504.845 721.373 503.424 719.792 501.671 719.792C499.918 719.792 498.497 721.373 498.497 723.324C498.497 725.275 499.918 726.856 501.671 726.856Z" stroke="#2A2A68" stroke-width="2" stroke-miterlimit="10" stroke-linecap="round" stroke-linejoin="round"/>
<path d="M641.363 730.388C643.116 730.388 644.537 728.807 644.537 726.856C644.537 724.905 643.116 723.324 641.363 723.324C639.611 723.324 638.19 724.905 638.19 726.856C638.19 728.807 639.611 730.388 641.363 730.388Z" stroke="#2A2A68" stroke-width="2" stroke-miterlimit="10" stroke-linecap="round" stroke-linejoin="round"/>
<path d="M563.797 756.002C565.55 756.002 566.971 754.42 566.971 752.47C566.971 750.519 565.55 748.938 563.797 748.938C562.044 748.938 560.623 750.519 560.623 752.47C560.623 754.42 562.044 756.002 563.797 756.002Z" stroke="#FFF9EF" stroke-width="2" stroke-miterlimit="10" stroke-linecap="round" stroke-linejoin="round"/>
<path d="M825.213 518.868C826.966 518.868 828.387 517.287 828.387 515.336C828.387 513.385 826.966 511.804 825.213 511.804C823.461 511.804 822.04 513.385 822.04 515.336C822.04 517.287 823.461 518.868 825.213 518.868Z" stroke="#FFF9EF" stroke-width="2" stroke-miterlimit="10" stroke-linecap="round" stroke-linejoin="round"/>
<defs>
<linearGradient id="paint0_linear_591_1313" x1="289" y1="150.857" x2="3206.07" y2="2537.39" gradientUnits="userSpaceOnUse">
<stop stop-color="#F9F9FF"/>
<stop offset="1" stop-color="#2C269E"/>
</linearGradient>
</defs>
</svg>
