<svg width="564" height="363" viewBox="0 0 564 363" fill="none" xmlns="http://www.w3.org/2000/svg">
<path d="M9.22058 74.9998C-28.2072 166.586 59.8093 288.56 178.347 298.586C296.885 308.612 444.895 272.715 504.55 207.419C585.811 118.474 536.468 -21.2178 388.719 11.2278C296.596 31.4576 292.668 59.507 214.331 27.3263C155.366 3.10284 54.1902 -35.0399 9.22058 74.9998Z" fill="#D1DCF8"/>
<mask id="mask0_503_1310" style="mask-type:luminance" maskUnits="userSpaceOnUse" x="0" y="0" width="544" height="301">
<path d="M9.22058 74.9998C-28.2072 166.586 59.8093 288.56 178.347 298.586C296.885 308.612 444.895 272.715 504.55 207.419C585.811 118.474 536.468 -21.2178 388.719 11.2278C296.596 31.4576 292.668 59.507 214.331 27.3263C155.366 3.10284 54.1902 -35.0399 9.22058 74.9998Z" fill="white"/>
</mask>
<g mask="url(#mask0_503_1310)">
<path d="M102.067 107.698C95.912 93.5047 103.05 70.1768 120.705 69.769C138.36 69.3612 143.112 51.9137 157.546 64.1252C171.98 76.3376 163.538 98.6486 176.286 109.658C189.033 120.667 181.493 129.395 181.493 129.395L102.067 107.698Z" fill="#008086"/>
<path d="M141.788 115.133C141.788 115.133 139.43 79.2241 163.67 68.365C185.049 58.7878 205.805 80.697 201.523 98.4628C198.878 109.437 200.641 116.817 200.641 116.817C200.641 116.817 169.16 131.052 141.788 115.133Z" fill="#FFE1AD"/>
<path d="M154.877 85.308C158.295 82.9559 162.627 91.5497 164.727 96.3676C166.402 100.21 169.714 103.781 171.028 105.109C171.188 104.259 171.352 103.404 171.515 102.544C172.17 99.1103 172.852 95.5305 173.466 91.6581C171.142 90.6618 162.984 86.8248 161.226 81.3316C159.762 76.7546 164.798 76.1068 168.589 83.2725C169.785 85.5351 172.666 87.7126 173.923 88.5919C174.204 86.614 174.462 84.5578 174.686 82.4027C174.216 80.9134 173.255 78.8616 171.299 77.1228C167.762 73.98 162.234 67.5078 166.432 66.028C170.108 64.7315 173.366 73.1257 175.17 76.7925C175.278 75.2198 175.361 73.5851 175.426 71.9049C175.385 71.4257 175.036 67.5955 174.31 63.8763C173.535 59.9007 172.242 51.9254 176.806 53.0344C181.055 54.0668 176.924 67.8295 176.753 71.5745L176.747 71.5763C176.726 72.1656 176.704 72.7532 176.678 73.3288C178.182 70.2204 181.693 63.7309 184.041 65.4696C186.448 67.2531 183.611 71.4799 181.201 73.746C179.502 75.3428 177.42 77.6975 176.199 80.3207C175.839 84.3333 175.358 88.0146 174.82 91.4585C177.154 87.0278 183.15 76.3812 185.884 78.3686C188.235 80.0772 185.766 85.1652 182.882 89.2802C180.577 92.5692 175.805 95.4599 173.753 97.7157C173.434 99.4622 173.111 101.164 172.794 102.826C172.562 104.04 172.335 105.24 172.113 106.436C176.337 103.502 180.368 95.3085 183.873 94.4576C187.586 93.5551 188.2 97.4387 183.228 101.809C179.197 105.352 173.708 107.557 171.6 109.258C170.809 113.741 170.15 118.218 169.848 123.034C169.825 123.405 169.538 123.688 169.197 123.688C169.183 123.688 169.168 123.687 169.153 123.687C168.793 123.661 168.52 123.326 168.545 122.94C168.854 118.023 169.525 113.474 170.331 108.921C168.173 106.61 164.694 103.888 161.434 100.982C157.818 97.7553 151.552 87.5973 154.877 85.308Z" fill="#F3595B"/>
<path d="M155.681 92.1697C152.08 89.6919 147.517 98.7469 145.306 103.824C143.542 107.872 140.053 111.636 138.669 113.034C138.5 112.138 138.328 111.238 138.155 110.331C137.464 106.714 136.745 102.942 136.097 98.8631C138.546 97.8135 147.139 93.7682 148.991 87.9807C150.533 83.1586 145.226 82.4763 141.234 90.0266C139.974 92.4106 136.939 94.7051 135.614 95.6325C135.319 93.5479 135.045 91.3825 134.809 89.1121C135.304 87.5428 136.316 85.3808 138.377 83.5492C142.103 80.2369 147.924 73.4179 143.502 71.859C139.63 70.4945 136.198 79.3378 134.298 83.2016C134.184 81.5446 134.095 79.8231 134.027 78.0525C134.071 77.5475 134.437 73.5126 135.202 69.5937C136.018 65.4048 137.379 57.0028 132.571 58.1711C128.094 59.2594 132.448 73.7586 132.63 77.7041L132.636 77.7058C132.658 78.3261 132.681 78.9455 132.709 79.5521C131.123 76.2777 127.424 69.4415 124.951 71.274C122.414 73.1538 125.404 77.606 127.944 79.9926C129.734 81.6745 131.928 84.1548 133.214 86.9182C133.595 91.145 134.102 95.0243 134.67 98.6523C132.21 93.985 125.891 82.7697 123.011 84.8629C120.535 86.6627 123.137 92.0234 126.175 96.3586C128.604 99.8232 133.632 102.868 135.795 105.244C136.132 107.084 136.472 108.877 136.806 110.628C137.051 111.907 137.289 113.171 137.525 114.432C133.074 111.342 128.825 102.71 125.132 101.814C121.22 100.864 120.574 104.956 125.813 109.559C130.06 113.291 135.844 115.612 138.064 117.404C138.898 122.127 139.593 126.844 139.912 131.918C139.937 132.308 140.239 132.607 140.598 132.607C140.613 132.607 140.629 132.606 140.645 132.605C141.024 132.578 141.311 132.225 141.285 131.818C140.959 126.638 140.251 121.845 139.402 117.049C141.675 114.614 145.34 111.745 148.774 108.682C152.585 105.285 159.184 94.5803 155.681 92.1697Z" fill="#FBB217"/>
<path d="M222.909 49.603C222.909 49.603 218.69 67.9117 207.41 86.1275" stroke="#2A2A68" stroke-miterlimit="10" stroke-linecap="round" stroke-linejoin="round"/>
<path d="M212.623 49.1406C212.623 49.1406 215.191 56.7683 218.792 62.6633" stroke="#2A2A68" stroke-miterlimit="10" stroke-linecap="round" stroke-linejoin="round"/>
<path d="M207.41 58.7112C207.41 58.7112 210.33 66.5127 214.908 72.0437" stroke="#2A2A68" stroke-miterlimit="10" stroke-linecap="round" stroke-linejoin="round"/>
<path d="M204.615 66.4325C204.615 66.4325 208.81 67.5879 211.953 67.8658" stroke="#2A2A68" stroke-miterlimit="10" stroke-linecap="round" stroke-linejoin="round"/>
<path d="M208.467 75.0989L209.781 82.12" stroke="#2A2A68" stroke-miterlimit="10" stroke-linecap="round" stroke-linejoin="round"/>
<path d="M220.005 75.4688C220.005 75.4688 215.152 77.3744 212.106 77.8174" stroke="#2A2A68" stroke-miterlimit="10" stroke-linecap="round" stroke-linejoin="round"/>
<path d="M221.061 67.5415C221.061 67.5415 218.054 68.9482 215.92 69.7732" stroke="#2A2A68" stroke-miterlimit="10" stroke-linecap="round" stroke-linejoin="round"/>
<path d="M229.585 60.6995C229.585 60.6995 223.863 63.5265 218.22 64.1709" stroke="#2A2A68" stroke-miterlimit="10" stroke-linecap="round" stroke-linejoin="round"/>
<path d="M223.902 58.7112C223.902 58.7112 221.546 60.9076 219.192 61.5778" stroke="#2A2A68" stroke-miterlimit="10" stroke-linecap="round" stroke-linejoin="round"/>
<path d="M222.007 63.4515C222.007 63.4515 224.329 66.0515 227.558 68.6574" stroke="#2A2A68" stroke-miterlimit="10" stroke-linecap="round" stroke-linejoin="round"/>
<path d="M215.292 49.141C215.292 47.558 214.096 46.2744 212.622 46.2744C211.148 46.2744 209.953 47.558 209.953 49.141C209.953 50.724 211.148 52.0077 212.622 52.0077C214.097 52.0077 215.292 50.724 215.292 49.141Z" fill="#605575" stroke="#605575" stroke-miterlimit="10" stroke-linecap="round" stroke-linejoin="round"/>
<path d="M209.781 58.2023C209.781 56.6193 208.586 55.3357 207.112 55.3357C205.638 55.3357 204.443 56.6193 204.443 58.2023C204.443 59.7853 205.638 61.0689 207.112 61.0689C208.586 61.0689 209.781 59.7853 209.781 58.2023Z" fill="#FFF9EF" stroke="#FFF9EF" stroke-miterlimit="10" stroke-linecap="round" stroke-linejoin="round"/>
<path d="M232.255 60.6993C232.255 59.1163 231.059 57.8326 229.585 57.8326C228.111 57.8326 226.916 59.1163 226.916 60.6993C226.916 62.2823 228.111 63.5659 229.585 63.5659C231.059 63.5659 232.255 62.2823 232.255 60.6993Z" fill="#605575" stroke="#605575" stroke-miterlimit="10" stroke-linecap="round" stroke-linejoin="round"/>
<path d="M226.572 58.7113C226.572 57.1283 225.376 55.8447 223.902 55.8447C222.428 55.8447 221.233 57.1283 221.233 58.7113C221.233 60.2944 222.428 61.578 223.902 61.578C225.376 61.578 226.572 60.2944 226.572 58.7113Z" fill="#FFF9EF" stroke="#FFF9EF" stroke-miterlimit="10" stroke-linecap="round" stroke-linejoin="round"/>
<path d="M230.228 68.6575C230.228 67.0745 229.033 65.7909 227.559 65.7909C226.084 65.7909 224.889 67.0745 224.889 68.6575C224.889 70.2405 226.084 71.5241 227.559 71.5241C229.033 71.5241 230.228 70.2405 230.228 68.6575Z" fill="#FFF9EF" stroke="#FFF9EF" stroke-miterlimit="10" stroke-linecap="round" stroke-linejoin="round"/>
<path d="M204.615 69.2987C206.089 69.2987 207.284 68.0152 207.284 66.4321C207.284 64.8489 206.089 63.5654 204.615 63.5654C203.141 63.5654 201.946 64.8489 201.946 66.4321C201.946 68.0152 203.141 69.2987 204.615 69.2987Z" fill="#605575" stroke="#605575" stroke-miterlimit="10" stroke-linecap="round" stroke-linejoin="round"/>
<path d="M226.314 49.4186C226.314 47.8356 225.118 46.552 223.644 46.552C222.17 46.552 220.975 47.8356 220.975 49.4186C220.975 51.0016 222.17 52.2852 223.644 52.2852C225.118 52.2844 226.314 51.0016 226.314 49.4186Z" fill="#FFF9EF" stroke="#FFF9EF" stroke-miterlimit="10" stroke-linecap="round" stroke-linejoin="round"/>
<path d="M223.73 67.5413C223.73 65.9583 222.535 64.6747 221.06 64.6747C219.586 64.6747 218.391 65.9583 218.391 67.5413C218.391 69.1243 219.586 70.4079 221.06 70.4079C222.535 70.4079 223.73 69.1243 223.73 67.5413Z" fill="#605575" stroke="#605575" stroke-miterlimit="10" stroke-linecap="round" stroke-linejoin="round"/>
<path d="M218.22 60.5577C220.049 60.5577 221.532 58.9653 221.532 57.0011C221.532 55.0368 220.049 53.4445 218.22 53.4445C216.391 53.4445 214.908 55.0368 214.908 57.0011C214.908 58.9653 216.391 60.5577 218.22 60.5577Z" fill="#605575" stroke="#605575" stroke-miterlimit="10" stroke-linecap="round" stroke-linejoin="round"/>
<path d="M216.881 65.6678C216.881 63.5875 215.311 61.9012 213.374 61.9012C211.436 61.9012 209.866 63.5875 209.866 65.6678C209.866 67.7481 211.436 69.4343 213.374 69.4343C215.311 69.4334 216.881 67.7472 216.881 65.6678Z" fill="#FFF9EF" stroke="#FFF9EF" stroke-miterlimit="10" stroke-linecap="round" stroke-linejoin="round"/>
<path d="M211.973 75.0987C211.973 73.0184 210.403 71.3322 208.466 71.3322C206.529 71.3322 204.959 73.0184 204.959 75.0987C204.959 77.179 206.529 78.8652 208.466 78.8652C210.403 78.8652 211.973 77.179 211.973 75.0987Z" fill="#FFF9EF" stroke="#FFF9EF" stroke-miterlimit="10" stroke-linecap="round" stroke-linejoin="round"/>
<path d="M223.511 75.4684C223.511 73.3882 221.941 71.7019 220.004 71.7019C218.067 71.7019 216.497 73.3882 216.497 75.4684C216.497 77.5487 218.067 79.235 220.004 79.235C221.941 79.235 223.511 77.5487 223.511 75.4684Z" fill="#605575" stroke="#605575" stroke-miterlimit="10" stroke-linecap="round" stroke-linejoin="round"/>
<path d="M135.179 22.9001C135.179 22.9001 136.937 41.6665 132.016 62.8944" stroke="#2A2A68" stroke-miterlimit="10" stroke-linecap="round" stroke-linejoin="round"/>
<path d="M125.348 26.1777C125.348 26.1777 130.154 32.4341 135.391 36.6867" stroke="#2A2A68" stroke-miterlimit="10" stroke-linecap="round" stroke-linejoin="round"/>
<path d="M123.434 37.073C123.434 37.073 128.626 43.3663 134.669 46.9221" stroke="#2A2A68" stroke-miterlimit="10" stroke-linecap="round" stroke-linejoin="round"/>
<path d="M123.218 45.3539C123.218 45.3539 127.531 44.928 130.577 44.0548" stroke="#2A2A68" stroke-miterlimit="10" stroke-linecap="round" stroke-linejoin="round"/>
<path d="M129.559 52.1265L132.995 58.2632" stroke="#2A2A68" stroke-miterlimit="10" stroke-linecap="round" stroke-linejoin="round"/>
<path d="M140.541 48.3086C140.541 48.3086 136.567 51.8557 133.836 53.3725" stroke="#2A2A68" stroke-miterlimit="10" stroke-linecap="round" stroke-linejoin="round"/>
<path d="M139.054 40.4619C139.054 40.4619 136.662 42.8726 134.911 44.4194" stroke="#2A2A68" stroke-miterlimit="10" stroke-linecap="round" stroke-linejoin="round"/>
<path d="M144.941 30.9398C144.941 30.9398 140.437 35.6682 135.323 38.312" stroke="#2A2A68" stroke-miterlimit="10" stroke-linecap="round" stroke-linejoin="round"/>
<path d="M138.966 31.1195C138.966 31.1195 137.435 34.0386 135.427 35.5192" stroke="#2A2A68" stroke-miterlimit="10" stroke-linecap="round" stroke-linejoin="round"/>
<path d="M138.666 36.2678C138.666 36.2678 141.667 37.8775 145.523 39.1663" stroke="#2A2A68" stroke-miterlimit="10" stroke-linecap="round" stroke-linejoin="round"/>
<path d="M127.861 25.2143C127.365 23.7234 125.838 22.9456 124.45 23.4782C123.061 24.0107 122.338 25.6505 122.833 27.1414C123.329 28.6324 124.856 29.4093 126.244 28.8776C127.633 28.3459 128.357 26.7053 127.861 25.2143Z" fill="#605575" stroke="#605575" stroke-miterlimit="10" stroke-linecap="round" stroke-linejoin="round"/>
<path d="M125.508 35.7386C125.012 34.2476 123.485 33.4699 122.097 34.0024C120.708 34.535 119.985 36.1748 120.48 37.6657C120.976 39.1567 122.503 39.9336 123.891 39.4019C125.28 38.8693 126.004 37.2295 125.508 35.7386Z" fill="#FFF9EF" stroke="#FFF9EF" stroke-miterlimit="10" stroke-linecap="round" stroke-linejoin="round"/>
<path d="M147.455 29.976C146.959 28.4851 145.432 27.7082 144.044 28.2399C142.655 28.7724 141.932 30.4122 142.427 31.9032C142.923 33.3941 144.45 34.171 145.838 33.6393C147.226 33.1077 147.95 31.467 147.455 29.976Z" fill="#FFF9EF" stroke="#FFF9EF" stroke-miterlimit="10" stroke-linecap="round" stroke-linejoin="round"/>
<path d="M140.733 31.2716C140.153 29.5277 138.367 28.6183 136.743 29.2403C135.119 29.8632 134.272 31.7817 134.851 33.5256C135.432 35.2704 137.218 36.1789 138.842 35.5569C140.467 34.9349 141.313 33.0163 140.733 31.2716Z" fill="#605575" stroke="#605575" stroke-miterlimit="10" stroke-linecap="round" stroke-linejoin="round"/>
<path d="M148.037 38.2035C147.541 36.7125 146.014 35.9356 144.626 36.4673C143.238 36.9999 142.514 38.6397 143.009 40.1306C143.505 41.6216 145.032 42.3984 146.421 41.8668C147.809 41.3342 148.532 39.6944 148.037 38.2035Z" fill="#FFF9EF" stroke="#FFF9EF" stroke-miterlimit="10" stroke-linecap="round" stroke-linejoin="round"/>
<path d="M125.732 44.3902C125.236 42.8993 123.709 42.1224 122.321 42.6541C120.933 43.1866 120.208 44.8264 120.704 46.3174C121.2 47.8083 122.727 48.5852 124.115 48.0535C125.504 47.5218 126.228 45.8812 125.732 44.3902Z" fill="#FFF9EF" stroke="#FFF9EF" stroke-miterlimit="10" stroke-linecap="round" stroke-linejoin="round"/>
<path d="M138.328 21.4968C137.832 20.0058 136.305 19.229 134.917 19.7607C133.528 20.2932 132.805 21.933 133.3 23.4239C133.795 24.9149 135.323 25.6918 136.711 25.1601C138.1 24.6275 138.824 22.9877 138.328 21.4968Z" fill="#FFF9EF" stroke="#FFF9EF" stroke-miterlimit="10" stroke-linecap="round" stroke-linejoin="round"/>
<path d="M141.568 39.4984C141.072 38.0074 139.545 37.2306 138.157 37.7622C136.769 38.2948 136.045 39.9346 136.54 41.4255C137.036 42.9165 138.563 43.6934 139.952 43.1617C141.341 42.6291 142.064 40.9893 141.568 39.4984Z" fill="#FFF9EF" stroke="#FFF9EF" stroke-miterlimit="10" stroke-linecap="round" stroke-linejoin="round"/>
<path d="M136.198 30.3641C135.583 28.5144 133.688 27.55 131.965 28.2107C130.243 28.8706 129.345 30.9053 129.96 32.7559C130.574 34.6056 132.47 35.57 134.192 34.9093C135.915 34.2485 136.813 32.2139 136.198 30.3641Z" fill="#FFF9EF" stroke="#FFF9EF" stroke-miterlimit="10" stroke-linecap="round" stroke-linejoin="round"/>
<path d="M134.532 40.2053C133.88 38.2463 131.874 37.2251 130.05 37.9245C128.226 38.624 127.275 40.7791 127.926 42.7372C128.578 44.6962 130.584 45.7174 132.408 45.018C134.232 44.3194 135.183 42.1643 134.532 40.2053Z" fill="#605575" stroke="#605575" stroke-miterlimit="10" stroke-linecap="round" stroke-linejoin="round"/>
<path d="M132.861 50.8599C132.21 48.901 130.203 47.8798 128.38 48.5792C126.556 49.2787 125.605 51.4329 126.256 53.3919C126.908 55.3509 128.914 56.3721 130.738 55.6726C132.562 54.9741 133.513 52.8189 132.861 50.8599Z" fill="#FFF9EF" stroke="#FFF9EF" stroke-miterlimit="10" stroke-linecap="round" stroke-linejoin="round"/>
<path d="M143.844 47.0428C143.193 45.0838 141.186 44.0626 139.363 44.7621C137.538 45.4615 136.588 47.6158 137.239 49.5748C137.89 51.5337 139.896 52.5549 141.72 51.8555C143.545 51.1569 144.495 49.0018 143.844 47.0428Z" fill="#605575" stroke="#605575" stroke-miterlimit="10" stroke-linecap="round" stroke-linejoin="round"/>
<path d="M196.973 52.6295C196.973 52.6295 188.598 68.5947 194.599 82.6731" stroke="#2A2A68" stroke-miterlimit="10" stroke-linecap="round" stroke-linejoin="round"/>
<path d="M196.238 46.5574L198.498 42.3882L198.52 46.1917L201.196 44.0753L200.804 47.619L203.894 45.7624L201.634 49.9316C202.479 51.7314 202.49 53.9381 201.475 55.8102C199.88 58.7517 196.367 59.7479 193.628 58.0359C190.889 56.323 189.961 52.5504 191.555 49.6089C192.57 47.7369 194.362 46.6572 196.238 46.5574Z" fill="#605575" stroke="#605575" stroke-miterlimit="10" stroke-linecap="round" stroke-linejoin="round"/>
<path d="M172.536 87.8057C172.536 87.8057 181.542 74.0645 197.815 72.3077C214.088 70.5509 227.779 80.0567 227.779 80.0567C227.779 80.0567 215.638 96.9957 193.596 92.2803C185.544 90.557 177.821 88.0612 172.536 87.8057Z" fill="#A1BFFF"/>
<path d="M153.862 118.725C153.862 118.725 158.38 77.6703 205.22 79.5191" stroke="#2A2A68" stroke-miterlimit="10" stroke-linecap="round" stroke-linejoin="round"/>
<path d="M223.735 84.3459C218.48 89.0098 208.216 95.4081 193.596 92.2808" stroke="#2A2A68" stroke-miterlimit="10" stroke-linecap="round" stroke-linejoin="round"/>
<path d="M172.536 87.8057C172.536 87.8057 181.542 74.0645 197.815 72.3077C214.088 70.5509 227.779 80.0567 227.779 80.0567" stroke="#2A2A68" stroke-miterlimit="10" stroke-linecap="round" stroke-linejoin="round"/>
<path d="M129.167 82.5998C129.167 82.5998 116.124 75.9366 111.733 60.3328C109.138 51.1134 111.129 40.0221 113.177 31.9874C113.177 31.9874 126.005 42.2323 130.589 55.6164C135.175 69.0015 129.167 82.5998 129.167 82.5998Z" fill="#A1BFFF"/>
<path d="M119.676 51.7332C121.742 66.2968 135.174 90.5694 135.174 114.703" stroke="#2A2A68" stroke-miterlimit="10" stroke-linecap="round" stroke-linejoin="round"/>
<path d="M117.951 72.713C115.463 69.4644 113.148 65.3632 111.733 60.332C110.864 57.246 110.509 53.9509 110.499 50.63" stroke="#2A2A68" stroke-miterlimit="10" stroke-linecap="round" stroke-linejoin="round"/>
<path d="M113.177 31.9874C113.177 31.9874 126.005 42.2323 130.589 55.6164C135.174 69.0015 129.167 82.5998 129.167 82.5998" stroke="#2A2A68" stroke-miterlimit="10" stroke-linecap="round" stroke-linejoin="round"/>
<path d="M101.085 82.6006C108.36 82.6006 114.259 76.2666 114.259 68.4533C114.259 60.64 108.36 54.306 101.085 54.306C93.8092 54.306 87.9111 60.64 87.9111 68.4533C87.9111 76.2666 93.8092 82.6006 101.085 82.6006Z" fill="#FBB217"/>
<path d="M101.085 82.6006C108.36 82.6006 114.259 76.2666 114.259 68.4533C114.259 60.64 108.36 54.306 101.085 54.306C93.8092 54.306 87.9111 60.64 87.9111 68.4533C87.9111 76.2666 93.8092 82.6006 101.085 82.6006Z" stroke="#2A2A68" stroke-miterlimit="10" stroke-linecap="round" stroke-linejoin="round"/>
<path d="M90.7625 59.6677C90.7625 59.6677 98.8242 73.2007 115.422 81.5846C132.02 89.9677 131.308 113.108 131.308 113.108" stroke="#2A2A68" stroke-miterlimit="10" stroke-linecap="round" stroke-linejoin="round"/>
<path d="M88.52 72.7131L97.036 67.663" stroke="#2A2A68" stroke-miterlimit="10" stroke-linecap="round" stroke-linejoin="round"/>
<path d="M105.346 55.0664L100.001 70.6582" stroke="#2A2A68" stroke-miterlimit="10" stroke-linecap="round" stroke-linejoin="round"/>
<path d="M111.037 59.1882L104.871 74.8626" stroke="#2A2A68" stroke-miterlimit="10" stroke-linecap="round" stroke-linejoin="round"/>
<path d="M94.4497 80.6732L103.209 73.5187" stroke="#2A2A68" stroke-miterlimit="10" stroke-linecap="round" stroke-linejoin="round"/>
<path d="M170.887 40.5908C170.887 40.5908 179.957 56.1121 174.584 70.4804" stroke="#2A2A68" stroke-miterlimit="10" stroke-linecap="round" stroke-linejoin="round"/>
<path d="M171.354 34.4876L168.913 30.4388L169.058 34.2389L166.292 32.261L166.84 35.7806L163.671 34.0832L166.112 38.1328C165.348 39.9739 165.434 42.178 166.531 43.9968C168.254 46.8539 171.807 47.6704 174.467 45.8207C177.128 43.971 177.888 40.1554 176.166 37.2983C175.069 35.4795 173.231 34.4919 171.354 34.4876Z" fill="#FFF9EF" stroke="#FFF9EF" stroke-miterlimit="10" stroke-linecap="round" stroke-linejoin="round"/>
<path d="M158.294 83.2187C168.138 83.2187 176.118 74.6491 176.118 64.078C176.118 53.5069 168.138 44.9374 158.294 44.9374C148.451 44.9374 140.471 53.5069 140.471 64.078C140.471 74.6491 148.451 83.2187 158.294 83.2187Z" fill="#6ECBD2"/>
<path d="M158.294 83.2187C168.138 83.2187 176.118 74.6491 176.118 64.078C176.118 53.5069 168.138 44.9374 158.294 44.9374C148.451 44.9374 140.471 53.5069 140.471 64.078C140.471 74.6491 148.451 83.2187 158.294 83.2187Z" stroke="#2A2A68" stroke-miterlimit="10" stroke-linecap="round" stroke-linejoin="round"/>
<path d="M160.237 45.0509C157.347 59.2696 156.926 70.6088 158.294 83.2178C160.237 101.125 155.539 120.112 155.539 120.112" stroke="#2A2A68" stroke-miterlimit="10" stroke-linecap="round" stroke-linejoin="round"/>
<path d="M157.971 60.289L174.675 56.5259" stroke="#2A2A68" stroke-miterlimit="10" stroke-linecap="round" stroke-linejoin="round"/>
<path d="M147.085 49.1959L158.294 57.1075" stroke="#2A2A68" stroke-miterlimit="10" stroke-linecap="round" stroke-linejoin="round"/>
<path d="M157.608 66.2013L176.118 64.078" stroke="#2A2A68" stroke-miterlimit="10" stroke-linecap="round" stroke-linejoin="round"/>
<path d="M157.546 70.6426L175.546 68.897" stroke="#2A2A68" stroke-miterlimit="10" stroke-linecap="round" stroke-linejoin="round"/>
<path d="M140.522 65.5139L157.572 72.5153" stroke="#2A2A68" stroke-miterlimit="10" stroke-linecap="round" stroke-linejoin="round"/>
<path d="M214.013 107.949C220.913 107.751 226.377 102.356 226.216 95.8983C226.055 89.4407 220.332 84.3663 213.432 84.5642C206.532 84.7622 201.069 90.1575 201.229 96.615C201.39 103.073 207.114 108.147 214.013 107.949Z" fill="#FBB217"/>
<path d="M214.013 107.949C220.913 107.751 226.377 102.356 226.216 95.8983C226.055 89.4407 220.332 84.3663 213.432 84.5642C206.532 84.7622 201.069 90.1575 201.229 96.615C201.39 103.073 207.114 108.147 214.013 107.949Z" stroke="#2A2A68" stroke-miterlimit="10" stroke-linecap="round" stroke-linejoin="round"/>
<path d="M226.234 95.8952C226.234 95.8952 180.798 89.9658 175.288 119.988" stroke="#2A2A68" stroke-miterlimit="10" stroke-linecap="round" stroke-linejoin="round"/>
<path d="M220.727 86.5057L214.01 95.479" stroke="#2A2A68" stroke-miterlimit="10" stroke-linecap="round" stroke-linejoin="round"/>
<path d="M207.632 95.9583L214.257 84.5641" stroke="#2A2A68" stroke-miterlimit="10" stroke-linecap="round" stroke-linejoin="round"/>
<path d="M205.999 96.1666L209.742 107.368" stroke="#2A2A68" stroke-miterlimit="10" stroke-linecap="round" stroke-linejoin="round"/>
<path d="M212.329 95.5565L216.966 107.535" stroke="#2A2A68" stroke-miterlimit="10" stroke-linecap="round" stroke-linejoin="round"/>
<path d="M218.862 95.4354L225.191 100.866" stroke="#2A2A68" stroke-miterlimit="10" stroke-linecap="round" stroke-linejoin="round"/>
<path d="M184.899 74.5562C184.899 74.5562 181.994 61.5618 177.005 57.7333C172.016 53.9048 170.36 60.1491 174.175 65.3507C177.99 70.5522 184.899 74.5562 184.899 74.5562Z" fill="#6ECBD2"/>
<path d="M184.899 74.556C184.899 74.556 188.931 67.1907 193.765 63.4655C198.07 60.148 204.029 63.5782 198.244 69.7063C194.169 74.0243 184.899 74.556 184.899 74.556Z" fill="#6ECBD2"/>
<path d="M179.359 87.4791C179.359 87.4791 183.417 82.989 190.329 81.7725C197.24 80.556 198.171 83.4631 195.798 86.2832C193.425 89.1034 185.743 90.1969 179.359 87.4791Z" fill="#6ECBD2"/>
<path d="M179.359 87.4794C179.359 87.4794 177.695 82.1832 174.617 77.0066C170.586 70.2272 164.682 72.5535 167.22 78.8649C169.928 85.5961 179.359 87.4794 179.359 87.4794Z" fill="#6ECBD2"/>
<path d="M173.939 103.856C173.939 103.856 171.955 97.1585 166.758 93.1554C161.561 89.1522 157.801 94.2686 163.189 99.1114C167.934 103.377 173.939 103.856 173.939 103.856Z" fill="#6ECBD2"/>
<path d="M173.939 103.857C173.939 103.857 179.348 107.023 186.631 103.512C193.858 100.029 190.504 95.5854 185.153 96.9791C179.803 98.3728 173.939 103.857 173.939 103.857Z" fill="#6ECBD2"/>
<path d="M187.133 55.6853C187.133 55.6853 189.198 47.1 188.448 40.3774C187.424 31.1959 179.783 31.2088 179.638 38.581C179.493 45.954 187.133 55.6853 187.133 55.6853Z" fill="#6ECBD2"/>
<path d="M184.899 74.5562C184.899 74.5562 181.994 61.5618 177.005 57.7333C172.016 53.9048 170.36 60.1491 174.175 65.3507C177.99 70.5522 184.899 74.5562 184.899 74.5562Z" stroke="#2A2A68" stroke-miterlimit="10" stroke-linecap="round" stroke-linejoin="round"/>
<path d="M184.899 74.556C184.899 74.556 188.931 67.1907 193.765 63.4655C198.07 60.148 204.029 63.5782 198.244 69.7063C194.169 74.0243 184.899 74.556 184.899 74.556Z" stroke="#2A2A68" stroke-miterlimit="10" stroke-linecap="round" stroke-linejoin="round"/>
<path d="M179.359 87.4791C179.359 87.4791 183.417 82.989 190.329 81.7725C197.24 80.556 198.171 83.4631 195.798 86.2832C193.425 89.1034 185.743 90.1969 179.359 87.4791Z" stroke="#2A2A68" stroke-miterlimit="10" stroke-linecap="round" stroke-linejoin="round"/>
<path d="M179.359 87.4794C179.359 87.4794 177.695 82.1832 174.617 77.0066C170.586 70.2272 164.682 72.5535 167.22 78.8649C169.928 85.5961 179.359 87.4794 179.359 87.4794Z" stroke="#2A2A68" stroke-miterlimit="10" stroke-linecap="round" stroke-linejoin="round"/>
<path d="M173.939 103.856C173.939 103.856 171.955 97.1585 166.758 93.1554C161.561 89.1522 157.801 94.2686 163.189 99.1114C167.934 103.377 173.939 103.856 173.939 103.856Z" stroke="#2A2A68" stroke-miterlimit="10" stroke-linecap="round" stroke-linejoin="round"/>
<path d="M173.939 103.857C173.939 103.857 179.348 107.023 186.631 103.512C193.858 100.029 190.504 95.5854 185.153 96.9791C179.803 98.3728 173.939 103.857 173.939 103.857Z" stroke="#2A2A68" stroke-miterlimit="10" stroke-linecap="round" stroke-linejoin="round"/>
<path d="M187.133 55.6853C187.133 55.6853 189.198 47.1 188.448 40.3774C187.424 31.1959 179.783 31.2088 179.638 38.581C179.493 45.954 187.133 55.6853 187.133 55.6853Z" stroke="#2A2A68" stroke-miterlimit="10" stroke-linecap="round" stroke-linejoin="round"/>
<path d="M174.781 124.304C169.839 106.77 176.528 93.9701 183.871 77.1635C187.184 69.5831 187.461 61.8832 187.133 55.6853C186.788 49.1649 184.528 40.8618 184.528 40.8618" stroke="#2A2A68" stroke-miterlimit="10" stroke-linecap="round" stroke-linejoin="round"/>
<path d="M184.898 74.556C191.736 70.4944 195.492 67.1237 195.492 67.1237" stroke="#2A2A68" stroke-miterlimit="10" stroke-linecap="round" stroke-linejoin="round"/>
<path d="M177.188 62.7953C177.188 62.7953 180.944 69.8311 184.899 74.556" stroke="#2A2A68" stroke-miterlimit="10" stroke-linecap="round" stroke-linejoin="round"/>
<path d="M191.313 84.4918C191.313 84.4918 185.489 87.201 179.359 87.4789" stroke="#2A2A68" stroke-miterlimit="10" stroke-linecap="round" stroke-linejoin="round"/>
<path d="M171.206 78.1688C171.206 78.1688 174.784 84.9654 179.359 87.4793" stroke="#2A2A68" stroke-miterlimit="10" stroke-linecap="round" stroke-linejoin="round"/>
<path d="M185.05 100.688C185.05 100.688 178.47 103.701 173.939 103.856" stroke="#2A2A68" stroke-miterlimit="10" stroke-linecap="round" stroke-linejoin="round"/>
<path d="M166.212 97.0005C166.212 97.0005 169.926 102.165 173.939 103.856" stroke="#2A2A68" stroke-miterlimit="10" stroke-linecap="round" stroke-linejoin="round"/>
<path d="M167.25 103.465V118.44" stroke="#2A2A68" stroke-miterlimit="10" stroke-linecap="round" stroke-linejoin="round"/>
<path d="M170.373 96.6569V91.833L168.571 95.1074L167.25 91.833L165.929 95.1074L164.127 91.833V96.6569C162.554 97.7555 161.51 99.6577 161.51 101.823C161.51 105.227 164.08 107.986 167.249 107.986C170.418 107.986 172.987 105.227 172.987 101.823C172.989 99.6577 171.946 97.7564 170.373 96.6569Z" fill="#FFF9EF" stroke="#FFF9EF" stroke-miterlimit="10" stroke-linecap="round" stroke-linejoin="round"/>
<path d="M140.628 71.0757C140.628 71.0757 144.251 59.6238 149.044 56.6179C153.837 53.6127 154.847 59.389 151.005 63.7362C147.165 68.0843 140.628 71.0757 140.628 71.0757Z" fill="#F68A28"/>
<path d="M140.628 71.0757C140.628 71.0757 137.564 64.0769 133.496 60.288C129.873 56.9138 124.237 59.4733 128.975 65.5128C132.314 69.7688 140.628 71.0757 140.628 71.0757Z" fill="#F68A28"/>
<path d="M144.621 83.2185C144.621 83.2185 141.31 78.8093 135.175 77.0955C129.04 75.3817 127.976 77.9188 129.897 80.6727C131.817 83.4258 138.656 85.0974 144.621 83.2185Z" fill="#F68A28"/>
<path d="M144.621 83.2187C144.621 83.2187 146.53 78.5935 149.705 74.2033C153.862 68.4528 159.005 71.0768 156.227 76.5391C153.266 82.3626 144.621 83.2187 144.621 83.2187Z" fill="#F68A28"/>
<path d="M148.238 98.4624C148.238 98.4624 150.545 92.6036 155.539 89.459C160.533 86.3154 163.526 91.2623 158.294 95.1458C153.687 98.5665 148.238 98.4624 148.238 98.4624Z" fill="#F68A28"/>
<path d="M148.238 98.4625C148.238 98.4625 143.118 100.833 136.826 97.0189C130.582 93.2343 133.949 89.5288 138.663 91.2624C143.376 92.9968 148.238 98.4625 148.238 98.4625Z" fill="#F68A28"/>
<path d="M140.075 53.8693C140.075 53.8693 138.879 45.9474 140.075 39.9552C141.709 31.7717 148.595 32.4652 148.155 39.1233C147.715 45.7805 140.075 53.8693 140.075 53.8693Z" fill="#F68A28"/>
<path d="M140.628 71.0757C140.628 71.0757 144.251 59.6238 149.044 56.6179C153.837 53.6127 154.847 59.389 151.005 63.7362C147.165 68.0843 140.628 71.0757 140.628 71.0757Z" stroke="#2A2A68" stroke-miterlimit="10" stroke-linecap="round" stroke-linejoin="round"/>
<path d="M140.628 71.0757C140.628 71.0757 137.564 64.0769 133.496 60.288C129.873 56.9138 124.237 59.4733 128.975 65.5128C132.314 69.7688 140.628 71.0757 140.628 71.0757Z" stroke="#2A2A68" stroke-miterlimit="10" stroke-linecap="round" stroke-linejoin="round"/>
<path d="M144.621 83.2185C144.621 83.2185 141.31 78.8093 135.175 77.0955C129.04 75.3817 127.976 77.9188 129.897 80.6727C131.817 83.4258 138.656 85.0974 144.621 83.2185Z" stroke="#2A2A68" stroke-miterlimit="10" stroke-linecap="round" stroke-linejoin="round"/>
<path d="M144.621 83.2187C144.621 83.2187 146.53 78.5935 149.705 74.2033C153.862 68.4528 159.005 71.0768 156.227 76.5391C153.266 82.3626 144.621 83.2187 144.621 83.2187Z" stroke="#2A2A68" stroke-miterlimit="10" stroke-linecap="round" stroke-linejoin="round"/>
<path d="M148.238 98.4624C148.238 98.4624 150.545 92.6036 155.539 89.459C160.533 86.3154 163.526 91.2623 158.294 95.1458C153.687 98.5665 148.238 98.4624 148.238 98.4624Z" stroke="#2A2A68" stroke-miterlimit="10" stroke-linecap="round" stroke-linejoin="round"/>
<path d="M148.238 98.4625C148.238 98.4625 143.118 100.833 136.826 97.0189C130.582 93.2343 133.949 89.5288 138.663 91.2624C143.376 92.9968 148.238 98.4625 148.238 98.4625Z" stroke="#2A2A68" stroke-miterlimit="10" stroke-linecap="round" stroke-linejoin="round"/>
<path d="M140.075 53.8693C140.075 53.8693 138.879 45.9474 140.075 39.9552C141.709 31.7717 148.595 32.4652 148.155 39.1233C147.715 45.7805 140.075 53.8693 140.075 53.8693Z" stroke="#2A2A68" stroke-miterlimit="10" stroke-linecap="round" stroke-linejoin="round"/>
<path d="M145.895 116.817C151.707 101.455 146.67 89.321 141.352 73.5185C138.953 66.3906 139.3 59.4262 140.075 53.8694C140.89 48.0234 143.57 40.7416 143.57 40.7416" stroke="#2A2A68" stroke-miterlimit="10" stroke-linecap="round" stroke-linejoin="round"/>
<path d="M140.628 71.0759C134.779 66.8052 131.655 63.431 131.655 63.431" stroke="#2A2A68" stroke-miterlimit="10" stroke-linecap="round" stroke-linejoin="round"/>
<path d="M148.488 61.1652C148.488 61.1652 144.558 67.1711 140.628 71.0762" stroke="#2A2A68" stroke-miterlimit="10" stroke-linecap="round" stroke-linejoin="round"/>
<path d="M134.077 79.4592C134.077 79.4592 139.116 82.4213 144.621 83.2189" stroke="#2A2A68" stroke-miterlimit="10" stroke-linecap="round" stroke-linejoin="round"/>
<path d="M152.689 75.5549C152.689 75.5549 148.938 81.3605 144.62 83.2179" stroke="#2A2A68" stroke-miterlimit="10" stroke-linecap="round" stroke-linejoin="round"/>
<path d="M138.469 94.6146C138.469 94.6146 144.166 97.9183 148.238 98.4629" stroke="#2A2A68" stroke-miterlimit="10" stroke-linecap="round" stroke-linejoin="round"/>
<path d="M155.732 92.9736C155.732 92.9736 151.984 97.2968 148.238 98.4625" stroke="#2A2A68" stroke-miterlimit="10" stroke-linecap="round" stroke-linejoin="round"/>
<path d="M130.966 87.8572C130.966 87.8572 140.467 103.078 135.5 117.613" stroke="#2A2A68" stroke-miterlimit="10" stroke-linecap="round" stroke-linejoin="round"/>
<path d="M131.261 81.7423L128.707 77.7736L128.959 81.5676L126.138 79.6801L126.785 83.1807L123.569 81.5865L126.123 85.5553C125.411 87.4204 125.559 89.6212 126.707 91.4029C128.508 94.2033 132.083 94.9036 134.69 92.9687C137.297 91.0338 137.95 87.195 136.148 84.3955C135.002 82.6129 133.138 81.6855 131.261 81.7423Z" fill="#FFF9EF" stroke="#FFF9EF" stroke-miterlimit="10" stroke-linecap="round" stroke-linejoin="round"/>
<path d="M147.578 98.1504C147.578 98.1504 138.077 113.371 143.044 127.907" stroke="#2A2A68" stroke-miterlimit="10" stroke-linecap="round" stroke-linejoin="round"/>
<path d="M147.282 92.035L149.836 88.0663L149.585 91.8603L152.406 89.9728L151.758 93.4735L154.974 91.8793L152.42 95.848C153.132 97.7132 152.984 99.9139 151.837 101.696C150.035 104.496 146.46 105.196 143.854 103.261C141.247 101.327 140.594 97.4878 142.396 94.6882C143.541 92.9056 145.406 91.9782 147.282 92.035Z" fill="#605575" stroke="#605575" stroke-miterlimit="10" stroke-linecap="round" stroke-linejoin="round"/>
<path d="M98.5405 98.4631C88.991 112.771 78.5267 134.012 81.3171 155.62C86.2248 193.624 109.215 212.302 109.215 212.302L199.882 145.633C205.83 132.718 204.081 121.77 200.903 114.104C166.885 124.675 116.378 105.915 98.5405 98.4631Z" fill="#2A2A68"/>
<path d="M198.849 127.047C198.849 127.047 219.772 190.017 192.65 217.48C181.979 228.284 169.27 230.587 157.777 229.406V297.648C157.777 312.816 146.328 325.111 132.205 325.111C118.081 325.111 106.632 312.815 106.632 297.648V215.26C106.632 191.126 104.566 168.657 104.566 168.657C104.566 168.657 88.2925 178.813 79.3808 163.679C70.4691 148.545 81.5767 130.376 93.7169 133.427C105.857 136.479 104.179 155.62 112.703 155.62C121.227 155.62 122.519 120.112 122.519 120.112C122.519 120.112 159.456 144.246 198.849 127.047Z" fill="#F57ABD"/>
<path d="M126.349 212.302C130.002 242.888 151.955 249.865 157.778 251.187V229.407C136.424 225.336 126.349 212.302 126.349 212.302Z" fill="#CE67AE"/>
<path d="M156.013 150.442C154.185 145.598 149.769 142.178 144.604 142.178C139.438 142.178 135.022 145.598 133.195 150.442" stroke="#2A2A68" stroke-width="2" stroke-miterlimit="10" stroke-linecap="round" stroke-linejoin="round"/>
<path d="M200.203 142.422C199.439 142.262 198.65 142.178 197.842 142.178C192.677 142.178 188.261 145.598 186.434 150.442" stroke="#2A2A68" stroke-width="2" stroke-miterlimit="10" stroke-linecap="round" stroke-linejoin="round"/>
<path d="M174.567 148.963C174.567 148.963 177.237 155.805 178.614 166.717L170.692 167.364" stroke="#2A2A68" stroke-width="2" stroke-miterlimit="10" stroke-linecap="round" stroke-linejoin="round"/>
<path d="M183.479 183.637C183.479 183.637 173.276 197.091 147.187 185.856" stroke="#2A2A68" stroke-width="2" stroke-miterlimit="10" stroke-linecap="round" stroke-linejoin="round"/>
<path d="M128.609 208.272C135.814 208.272 141.654 202 141.654 194.263C141.654 186.527 135.814 180.255 128.609 180.255C121.405 180.255 115.564 186.527 115.564 194.263C115.564 202 121.405 208.272 128.609 208.272Z" fill="#CE67AE"/>
<path d="M199.548 208.007C203.815 200.011 205.78 190.591 206.357 181.05C205.009 180.544 203.566 180.255 202.056 180.255C194.852 180.255 189.011 186.526 189.011 194.263C189.011 201.078 193.544 206.75 199.548 208.007Z" fill="#CE67AE"/>
<path d="M85.3213 150.441L95.9114 145.634" stroke="#2A2A68" stroke-width="2" stroke-miterlimit="10" stroke-linecap="round" stroke-linejoin="round"/>
<path d="M93.9102 157.908L90.1096 148.268" stroke="#2A2A68" stroke-width="2" stroke-miterlimit="10" stroke-linecap="round" stroke-linejoin="round"/>
<path d="M119.51 99.518C119.51 99.518 118.033 88.3501 104.472 83.2174C95.3746 79.7743 86.2185 82.5119 81.177 84.6859C81.177 84.6859 87.4234 85.9911 92.138 94.036C96.1036 100.804 109.427 108.744 119.51 99.518Z" fill="#6ECBD2"/>
<path d="M97.8203 91.2627C97.8203 91.2627 127.591 97.0192 130.432 113.108" stroke="#2A2A68" stroke-miterlimit="10" stroke-linecap="round" stroke-linejoin="round"/>
<path d="M91.4795 92.9709C91.7014 93.3125 91.9209 93.6669 92.1372 94.036C96.1028 100.803 109.427 108.744 119.51 99.518C119.51 99.518 118.033 88.3501 104.472 83.2174C95.3746 79.7743 86.2185 82.5119 81.177 84.6859" stroke="#2A2A68" stroke-miterlimit="10" stroke-linecap="round" stroke-linejoin="round"/>
<path d="M188.755 114.802C188.755 114.802 196.449 104.509 213.665 111.999C221.626 115.462 225.837 122.338 228.063 128.729C228.063 128.729 211.248 132.596 201.367 121.708C193.307 112.826 188.755 114.802 188.755 114.802Z" fill="#6ECBD2"/>
<path d="M183.221 119.558C183.221 119.558 194.202 103.816 212.024 120.737" stroke="#2A2A68" stroke-miterlimit="10" stroke-linecap="round" stroke-linejoin="round"/>
<path d="M214.955 128.869C210.326 128.035 205.298 126.039 201.367 121.707C193.307 112.825 188.755 114.802 188.755 114.802C188.755 114.802 196.449 104.509 213.665 111.999C221.626 115.462 225.837 122.338 228.063 128.729" stroke="#2A2A68" stroke-miterlimit="10" stroke-linecap="round" stroke-linejoin="round"/>
<path d="M117.236 103.856C117.236 103.856 125.2 103.039 127.052 110.018" stroke="#2A2A68" stroke-miterlimit="10" stroke-linecap="round" stroke-linejoin="round"/>
<path d="M111.369 100.503H106.877L109.926 102.437L106.877 103.856L109.926 105.275L106.877 107.209H111.369C112.392 108.898 114.163 110.019 116.18 110.019C119.349 110.019 121.918 107.26 121.918 103.856C121.918 100.453 119.349 97.6935 116.18 97.6935C114.162 97.6935 112.392 98.8136 111.369 100.503Z" fill="#605575" stroke="#605575" stroke-miterlimit="10" stroke-linecap="round" stroke-linejoin="round"/>
<path d="M191.389 106.946C191.389 106.946 186.442 109.304 184.104 119.359" stroke="#2A2A68" stroke-miterlimit="10" stroke-linecap="round" stroke-linejoin="round"/>
<path d="M197.586 104.766L200.763 101.355L197.333 102.303L198.555 98.985L195.465 100.298L196.347 96.6147L193.171 100.026C191.335 99.6078 189.346 100.161 187.919 101.692C185.678 104.099 185.678 108.001 187.919 110.408C190.16 112.814 193.794 112.814 196.034 110.408C197.461 108.875 197.975 106.738 197.586 104.766Z" fill="#605575" stroke="#605575" stroke-miterlimit="10" stroke-linecap="round" stroke-linejoin="round"/>
</g>
<mask id="mask1_503_1310" style="mask-type:luminance" maskUnits="userSpaceOnUse" x="0" y="0" width="544" height="301">
<path d="M9.22058 74.9998C-28.2072 166.586 59.8093 288.56 178.347 298.586C296.885 308.612 444.895 272.715 504.55 207.419C585.811 118.474 536.468 -21.2178 388.719 11.2278C296.596 31.4576 292.668 59.507 214.331 27.3263C155.366 3.10284 54.1902 -35.0399 9.22058 74.9998Z" fill="white"/>
</mask>
<g mask="url(#mask1_503_1310)">
<path d="M330.336 141.799C321.431 138.743 328.498 107.077 344.68 95.1048C360.862 83.1324 385.584 91.5163 396.244 113.493C406.903 135.471 420.773 141.687 420.773 141.687C420.773 141.687 356.309 150.712 330.336 141.799Z" fill="#008086"/>
<path d="M358.371 148.362C358.371 148.362 344.955 126.78 361.041 116.296C377.128 105.81 369.218 99.2309 386.568 90.6965C403.919 82.1611 425.821 103.547 417.748 137.551C417.748 137.551 389.082 150.968 358.371 148.362Z" fill="#F3595B"/>
<path d="M366.313 61.1381C366.313 61.1381 373.596 78.3008 375.291 100.101" stroke="#2A2A68" stroke-miterlimit="10" stroke-linecap="round" stroke-linejoin="round"/>
<path d="M357.984 67.6367C357.984 67.6367 364.409 71.9014 370.641 74.1202" stroke="#2A2A68" stroke-miterlimit="10" stroke-linecap="round" stroke-linejoin="round"/>
<path d="M359.435 78.6138C359.435 78.6138 366.235 82.7803 373.022 84.0614" stroke="#2A2A68" stroke-miterlimit="10" stroke-linecap="round" stroke-linejoin="round"/>
<path d="M361.71 86.5287C361.71 86.5287 365.666 84.6368 368.289 82.7578" stroke="#2A2A68" stroke-miterlimit="10" stroke-linecap="round" stroke-linejoin="round"/>
<path d="M369.74 90.7528L374.831 95.3771" stroke="#2A2A68" stroke-miterlimit="10" stroke-linecap="round" stroke-linejoin="round"/>
<path d="M378.997 83.3464C378.997 83.3464 376.297 88.0774 374.165 90.4562" stroke="#2A2A68" stroke-miterlimit="10" stroke-linecap="round" stroke-linejoin="round"/>
<path d="M375.24 76.4294C375.24 76.4294 373.696 79.5378 372.502 81.6069" stroke="#2A2A68" stroke-miterlimit="10" stroke-linecap="round" stroke-linejoin="round"/>
<path d="M377.963 65.3801C377.963 65.3801 375.113 71.4128 371.063 75.6817" stroke="#2A2A68" stroke-miterlimit="10" stroke-linecap="round" stroke-linejoin="round"/>
<path d="M372.359 67.6129C372.359 67.6129 371.783 70.9054 370.326 73.0012" stroke="#2A2A68" stroke-miterlimit="10" stroke-linecap="round" stroke-linejoin="round"/>
<path d="M373.616 72.5925C373.616 72.5925 376.94 73.0812 380.978 72.9694" stroke="#2A2A68" stroke-miterlimit="10" stroke-linecap="round" stroke-linejoin="round"/>
<path d="M360.076 65.8561C359.16 64.6155 357.481 64.4064 356.326 65.3898C355.171 66.3731 354.976 68.1764 355.892 69.417C356.807 70.6576 358.487 70.8666 359.642 69.8833C360.797 68.8999 360.992 67.0967 360.076 65.8561Z" fill="#605575" stroke="#605575" stroke-miterlimit="10" stroke-linecap="round" stroke-linejoin="round"/>
<path d="M360.998 76.6335C360.083 75.3929 358.403 75.1839 357.248 76.1672C356.093 77.1506 355.898 78.9538 356.814 80.1944C357.73 81.435 359.408 81.6441 360.564 80.6607C361.72 79.6774 361.914 77.8741 360.998 76.6335Z" fill="#FFF9EF" stroke="#FFF9EF" stroke-miterlimit="10" stroke-linecap="round" stroke-linejoin="round"/>
<path d="M380.055 63.6002C379.139 62.3596 377.46 62.1505 376.305 63.1339C375.149 64.1173 374.955 65.9197 375.87 67.1611C376.786 68.4017 378.465 68.6108 379.62 67.6274C380.776 66.6441 380.97 64.8408 380.055 63.6002Z" fill="#605575" stroke="#605575" stroke-miterlimit="10" stroke-linecap="round" stroke-linejoin="round"/>
<path d="M374.452 65.833C373.536 64.5924 371.857 64.3833 370.701 65.3667C369.546 66.3501 369.352 68.1524 370.267 69.3939C371.183 70.6345 372.862 70.8436 374.017 69.8602C375.173 68.8768 375.366 67.0736 374.452 65.833Z" fill="#FFF9EF" stroke="#FFF9EF" stroke-miterlimit="10" stroke-linecap="round" stroke-linejoin="round"/>
<path d="M383.069 71.1893C382.154 69.9487 380.474 69.7397 379.319 70.723C378.164 71.7064 377.969 73.5096 378.885 74.7502C379.801 75.9908 381.48 76.1999 382.635 75.2165C383.79 74.2332 383.985 72.4299 383.069 71.1893Z" fill="#FFF9EF" stroke="#FFF9EF" stroke-miterlimit="10" stroke-linecap="round" stroke-linejoin="round"/>
<path d="M363.801 84.7485C362.885 83.5079 361.206 83.2989 360.051 84.2822C358.896 85.2656 358.701 87.0688 359.617 88.3094C360.533 89.55 362.211 89.7591 363.367 88.7757C364.522 87.7924 364.717 85.9891 363.801 84.7485Z" fill="#605575" stroke="#605575" stroke-miterlimit="10" stroke-linecap="round" stroke-linejoin="round"/>
<path d="M368.874 58.7224C367.958 57.4818 366.279 57.2727 365.124 58.2561C363.969 59.2395 363.774 61.0427 364.69 62.2833C365.606 63.5239 367.284 63.733 368.44 62.7496C369.595 61.7663 369.79 59.963 368.874 58.7224Z" fill="#605575" stroke="#605575" stroke-miterlimit="10" stroke-linecap="round" stroke-linejoin="round"/>
<path d="M377.332 74.6487C376.416 73.4081 374.737 73.199 373.582 74.1824C372.426 75.1657 372.232 76.969 373.147 78.2096C374.063 79.4502 375.741 79.6592 376.897 78.6759C378.053 77.6925 378.247 75.8893 377.332 74.6487Z" fill="#605575" stroke="#605575" stroke-miterlimit="10" stroke-linecap="round" stroke-linejoin="round"/>
<path d="M369.512 67.8545C368.376 66.3154 366.293 66.0564 364.86 67.2764C363.426 68.4963 363.185 70.7332 364.321 72.2723C365.457 73.8115 367.54 74.0704 368.973 72.8505C370.407 71.6305 370.648 69.3937 369.512 67.8545Z" fill="#605575" stroke="#605575" stroke-miterlimit="10" stroke-linecap="round" stroke-linejoin="round"/>
<path d="M370.88 77.7482C369.677 76.1178 367.471 75.8434 365.953 77.1356C364.435 78.4278 364.18 80.7963 365.383 82.4267C366.586 84.057 368.791 84.3306 370.31 83.0392C371.828 81.747 372.083 79.3776 370.88 77.7482Z" fill="#FFF9EF" stroke="#FFF9EF" stroke-miterlimit="10" stroke-linecap="round" stroke-linejoin="round"/>
<path d="M372.489 88.4129C371.285 86.7825 369.08 86.5089 367.562 87.8003C366.044 89.0925 365.789 91.461 366.991 93.0913C368.195 94.7217 370.4 94.9952 371.918 93.7039C373.436 92.4125 373.692 90.0432 372.489 88.4129Z" fill="#FFF9EF" stroke="#FFF9EF" stroke-miterlimit="10" stroke-linecap="round" stroke-linejoin="round"/>
<path d="M381.745 81.0072C380.541 79.3769 378.336 79.1033 376.818 80.3947C375.3 81.6869 375.045 84.0554 376.247 85.6857C377.451 87.316 379.656 87.5896 381.174 86.2982C382.692 85.006 382.948 82.6375 381.745 81.0072Z" fill="#605575" stroke="#605575" stroke-miterlimit="10" stroke-linecap="round" stroke-linejoin="round"/>
<path d="M394.261 60.0276C394.261 60.0276 385.886 75.9927 391.886 90.0712" stroke="#2A2A68" stroke-miterlimit="10" stroke-linecap="round" stroke-linejoin="round"/>
<path d="M393.525 53.9563L395.785 49.7871L395.808 53.5906L398.483 51.4742L398.091 55.0179L401.182 53.1613L398.922 57.3305C399.767 59.1303 399.777 61.3371 398.762 63.2091C397.168 66.1506 393.654 67.1469 390.915 65.4339C388.176 63.7219 387.248 59.9485 388.843 57.007C389.859 55.1349 391.651 54.0552 393.525 53.9563Z" fill="#605575" stroke="#605575" stroke-miterlimit="10" stroke-linecap="round" stroke-linejoin="round"/>
<path d="M389.722 107.68C399.565 107.68 407.545 99.1107 407.545 88.5396C407.545 77.9685 399.565 69.3989 389.722 69.3989C379.878 69.3989 371.898 77.9685 371.898 88.5396C371.898 99.1107 379.878 107.68 389.722 107.68Z" fill="#F68A28"/>
<path d="M389.722 107.68C399.565 107.68 407.545 99.1107 407.545 88.5396C407.545 77.9685 399.565 69.3989 389.722 69.3989C379.878 69.3989 371.898 77.9685 371.898 88.5396C371.898 99.1107 379.878 107.68 389.722 107.68Z" stroke="#2A2A68" stroke-miterlimit="10" stroke-linecap="round" stroke-linejoin="round"/>
<path d="M387.779 69.5131C390.669 83.7309 391.09 95.0709 389.722 107.68C387.779 125.587 392.477 144.574 392.477 144.574" stroke="#2A2A68" stroke-miterlimit="10" stroke-linecap="round" stroke-linejoin="round"/>
<path d="M390.044 84.7504L373.34 80.9882" stroke="#2A2A68" stroke-miterlimit="10" stroke-linecap="round" stroke-linejoin="round"/>
<path d="M400.929 73.6584L389.722 81.57" stroke="#2A2A68" stroke-miterlimit="10" stroke-linecap="round" stroke-linejoin="round"/>
<path d="M390.407 90.6636L371.898 88.5394" stroke="#2A2A68" stroke-miterlimit="10" stroke-linecap="round" stroke-linejoin="round"/>
<path d="M390.469 95.1038L372.469 93.3582" stroke="#2A2A68" stroke-miterlimit="10" stroke-linecap="round" stroke-linejoin="round"/>
<path d="M407.494 89.9764L390.443 96.9778" stroke="#2A2A68" stroke-miterlimit="10" stroke-linecap="round" stroke-linejoin="round"/>
<path d="M378.391 105.299C374.79 102.821 370.227 111.876 368.016 116.953C366.253 121.001 362.763 124.765 361.379 126.163C361.21 125.267 361.039 124.367 360.866 123.46C360.175 119.843 359.456 116.071 358.809 111.992C361.258 110.942 369.85 106.897 371.702 101.11C373.244 96.2876 367.937 95.6054 363.946 103.156C362.686 105.54 359.651 107.834 358.326 108.762C358.031 106.677 357.757 104.512 357.521 102.241C358.016 100.672 359.028 98.5098 361.088 96.6782C364.815 93.3659 370.636 86.5469 366.214 84.988C362.341 83.6235 358.91 92.4669 357.01 96.3306C356.896 94.6736 356.808 92.9521 356.739 91.1815C356.783 90.6765 357.149 86.6416 357.914 82.7228C358.73 78.5338 360.091 70.1318 355.283 71.3002C350.806 72.3885 355.16 86.8876 355.342 90.8331L355.348 90.8348C355.37 91.4551 355.393 92.0746 355.421 92.6811C353.835 89.4067 350.135 82.5705 347.662 84.403C345.126 86.2828 348.116 90.735 350.656 93.1216C352.446 94.8035 354.639 97.2839 355.926 100.047C356.307 104.275 356.814 108.153 357.382 111.781C354.921 107.114 348.603 95.8987 345.723 97.9919C343.247 99.7917 345.849 105.152 348.887 109.488C351.316 112.952 356.344 115.997 358.507 118.373C358.844 120.213 359.184 122.006 359.518 123.757C359.763 125.036 360.001 126.3 360.237 127.561C355.786 124.471 351.537 115.839 347.844 114.943C343.932 113.993 343.286 118.085 348.524 122.688C352.772 126.42 358.556 128.741 360.776 130.533C361.61 135.256 362.305 139.973 362.624 145.047C362.649 145.437 362.951 145.736 363.31 145.736C363.325 145.736 363.341 145.735 363.357 145.734C363.736 145.707 364.023 145.354 363.997 144.947C363.671 139.767 362.963 134.974 362.114 130.178C364.387 127.743 368.052 124.874 371.486 121.811C375.296 118.414 381.895 107.709 378.391 105.299Z" fill="#FBB217"/>
<path d="M393.48 85.8761C396.897 83.524 401.23 92.1178 403.329 96.9357C405.004 100.778 408.316 104.349 409.63 105.678C409.791 104.827 409.954 103.972 410.117 103.112C410.773 99.6784 411.455 96.0986 412.068 92.2262C409.744 91.23 401.586 87.3929 399.829 81.8997C398.364 77.3227 403.401 76.6749 407.191 83.8397C408.388 86.1024 411.269 88.2799 412.526 89.1591C412.806 87.1813 413.065 85.1251 413.289 82.9699C412.819 81.4807 411.858 79.4288 409.902 77.6901C406.365 74.5473 400.837 68.075 405.035 66.5953C408.711 65.2987 411.969 73.693 413.773 77.3597C413.88 75.787 413.964 74.1524 414.029 72.4722C413.988 71.993 413.639 68.1628 412.913 64.4436C412.138 60.468 410.845 52.4927 415.409 53.6017C419.658 54.6341 415.527 68.3968 415.356 72.1418L415.35 72.1435C415.329 72.7329 415.307 73.3205 415.281 73.896C416.785 70.7876 420.297 64.2982 422.644 66.0369C425.051 67.8204 422.214 72.0472 419.804 74.3133C418.105 75.9092 416.023 78.2648 414.803 80.8879C414.442 84.9005 413.962 88.5819 413.424 92.0258C415.758 87.5951 421.754 76.9485 424.488 78.9358C426.839 80.6445 424.37 85.7325 421.486 89.8474C419.181 93.1365 414.409 96.0272 412.357 98.283C412.038 100.029 411.715 101.731 411.398 103.393C411.166 104.607 410.939 105.807 410.717 107.003C414.941 104.07 418.972 95.8758 422.477 95.024C426.19 94.1215 426.804 98.0051 421.832 102.376C417.801 105.918 412.312 108.123 410.204 109.824C409.412 114.307 408.754 118.785 408.452 123.6C408.429 123.971 408.142 124.254 407.801 124.254C407.787 124.254 407.772 124.253 407.757 124.252C407.397 124.226 407.124 123.892 407.149 123.505C407.458 118.588 408.13 114.039 408.935 109.486C406.778 107.175 403.297 104.453 400.038 101.547C396.42 98.3243 390.154 88.1655 393.48 85.8761Z" fill="#6ECBD2"/>
<path d="M437.345 101.541C429.78 104.968 422.084 107.556 417.575 110.53C417.575 110.53 417.849 93.7283 430.4 82.4674C442.952 71.2066 459.251 70.8237 459.251 70.8237C459.251 70.8237 458.053 92.1608 437.345 101.541Z" fill="#A1BFFF"/>
<path d="M418.276 147.375C418.276 147.375 400.562 110.671 440.298 83.974" stroke="#2A2A68" stroke-miterlimit="10" stroke-linecap="round" stroke-linejoin="round"/>
<path d="M437.345 101.541C429.78 104.968 422.084 107.556 417.575 110.53C417.575 110.53 417.849 93.7283 430.4 82.4674C442.952 71.2066 459.251 70.8237 459.251 70.8237" stroke="#2A2A68" stroke-miterlimit="10" stroke-linecap="round" stroke-linejoin="round"/>
<path d="M415.07 139.325C422.03 131.85 422.03 119.731 415.07 112.256C408.109 104.781 396.824 104.781 389.864 112.256C382.903 119.731 382.903 131.85 389.864 139.325C396.824 146.799 408.109 146.799 415.07 139.325Z" fill="#FBB217"/>
<path d="M415.07 139.325C422.03 131.85 422.03 119.731 415.07 112.256C408.109 104.781 396.824 104.781 389.864 112.256C382.903 119.731 382.903 131.85 389.864 139.325C396.824 146.799 408.109 146.799 415.07 139.325Z" stroke="#2A2A68" stroke-miterlimit="10" stroke-linecap="round" stroke-linejoin="round"/>
<path d="M404.413 106.762C401.523 120.981 401.102 132.32 402.47 144.929C404.413 162.836 399.715 181.823 399.715 181.823" stroke="#2A2A68" stroke-miterlimit="10" stroke-linecap="round" stroke-linejoin="round"/>
<path d="M402.149 122L418.851 118.237" stroke="#2A2A68" stroke-miterlimit="10" stroke-linecap="round" stroke-linejoin="round"/>
<path d="M391.263 110.906L402.471 118.818" stroke="#2A2A68" stroke-miterlimit="10" stroke-linecap="round" stroke-linejoin="round"/>
<path d="M401.786 127.912L420.294 125.789" stroke="#2A2A68" stroke-miterlimit="10" stroke-linecap="round" stroke-linejoin="round"/>
<path d="M401.723 132.353L419.724 130.607" stroke="#2A2A68" stroke-miterlimit="10" stroke-linecap="round" stroke-linejoin="round"/>
<path d="M384.699 127.224L401.75 134.226" stroke="#2A2A68" stroke-miterlimit="10" stroke-linecap="round" stroke-linejoin="round"/>
<path d="M346.617 71.6338C346.617 71.6338 347.715 89.9201 336.621 99.8105" stroke="#2A2A68" stroke-miterlimit="10" stroke-linecap="round" stroke-linejoin="round"/>
<path d="M349.733 66.5059L349.38 61.6967L347.824 65.113L346.267 61.9599L345.189 65.3359L343.155 62.2232L343.507 67.0324C342.019 68.261 341.118 70.244 341.276 72.4035C341.525 75.7966 344.287 78.3303 347.447 78.0636C350.607 77.7969 352.967 74.8296 352.718 71.4365C352.561 69.277 351.382 67.4686 349.733 66.5059Z" fill="#FFF9EF" stroke="#FFF9EF" stroke-miterlimit="10" stroke-linecap="round" stroke-linejoin="round"/>
<path d="M375.435 129.472C375.435 129.472 388.478 122.809 392.869 107.205C395.464 97.9847 393.473 86.8941 391.425 78.8595C391.425 78.8595 378.597 89.1043 374.012 102.488C369.428 115.874 375.435 129.472 375.435 129.472Z" fill="#6ECBD2"/>
<path d="M384.926 98.6042C382.86 113.168 369.427 137.44 369.427 161.574" stroke="#2A2A68" stroke-miterlimit="10" stroke-linecap="round" stroke-linejoin="round"/>
<path d="M375.435 129.472C375.435 129.472 388.478 122.809 392.869 107.205C395.464 97.9847 393.473 86.8941 391.425 78.8595C391.425 78.8595 378.597 89.1043 374.012 102.488C369.428 115.874 375.435 129.472 375.435 129.472Z" stroke="#2A2A68" stroke-miterlimit="10" stroke-linecap="round" stroke-linejoin="round"/>
<path d="M344.525 117.355C344.525 117.355 331.482 110.691 327.09 95.0875C324.496 85.8673 326.487 74.776 328.535 66.7422C328.535 66.7422 341.362 76.987 345.947 90.3712C350.532 103.755 344.525 117.355 344.525 117.355Z" fill="#A1BFFF"/>
<path d="M335.034 86.4884C337.1 101.052 350.532 125.325 350.532 149.459" stroke="#2A2A68" stroke-miterlimit="10" stroke-linecap="round" stroke-linejoin="round"/>
<path d="M345.947 90.372C350.532 103.756 344.525 117.355 344.525 117.355C344.525 117.355 331.482 110.691 327.09 95.0875C324.496 85.8673 326.487 74.776 328.535 66.7422" stroke="#2A2A68" stroke-miterlimit="10" stroke-linecap="round" stroke-linejoin="round"/>
<path d="M427.629 127.091C427.629 127.091 429.106 115.923 442.667 110.791C451.765 107.348 460.921 110.086 465.962 112.26C465.962 112.26 459.716 113.565 455.001 121.61C451.036 128.377 437.712 136.317 427.629 127.091Z" fill="#6ECBD2"/>
<path d="M449.32 118.835C449.32 118.835 419.549 124.592 416.708 140.681" stroke="#2A2A68" stroke-miterlimit="10" stroke-linecap="round" stroke-linejoin="round"/>
<path d="M427.629 127.091C427.629 127.091 429.106 115.923 442.667 110.791C451.765 107.348 460.921 110.086 465.962 112.26C465.962 112.26 459.716 113.565 455.001 121.61" stroke="#2A2A68" stroke-miterlimit="10" stroke-linecap="round" stroke-linejoin="round"/>
<path d="M304.504 95.1016C300.799 97.6052 298.338 102.036 298.338 107.083C298.338 114.897 304.236 121.231 311.512 121.231C318.788 121.231 324.686 114.897 324.686 107.083C324.686 99.2699 318.788 92.9362 311.512 92.9362C308.936 92.9362 306.534 93.7294 304.504 95.1016Z" fill="#F3595B"/>
<path d="M304.504 95.1016C300.799 97.6052 298.338 102.036 298.338 107.083C298.338 114.897 304.236 121.231 311.512 121.231C318.788 121.231 324.686 114.897 324.686 107.083C324.686 99.2699 318.788 92.9362 311.512 92.9362C308.936 92.9362 306.534 93.7294 304.504 95.1016Z" stroke="#2A2A68" stroke-miterlimit="10" stroke-linecap="round" stroke-linejoin="round"/>
<path d="M301.189 98.299C301.189 98.299 309.251 111.832 325.849 120.215C342.446 128.598 341.735 151.738 341.735 151.738" stroke="#2A2A68" stroke-miterlimit="10" stroke-linecap="round" stroke-linejoin="round"/>
<path d="M298.947 111.343L307.463 106.293" stroke="#2A2A68" stroke-miterlimit="10" stroke-linecap="round" stroke-linejoin="round"/>
<path d="M315.773 93.6964L310.428 109.289" stroke="#2A2A68" stroke-miterlimit="10" stroke-linecap="round" stroke-linejoin="round"/>
<path d="M321.464 97.8185L315.298 113.493" stroke="#2A2A68" stroke-miterlimit="10" stroke-linecap="round" stroke-linejoin="round"/>
<path d="M304.877 119.303L313.636 112.149" stroke="#2A2A68" stroke-miterlimit="10" stroke-linecap="round" stroke-linejoin="round"/>
<path d="M321.391 107.484C321.391 107.484 319.184 95.6237 321.93 90.4437C324.677 85.2636 328.245 89.7193 326.949 95.5489C325.653 101.378 321.391 107.484 321.391 107.484Z" fill="#6ECBD2"/>
<path d="M321.391 107.484C321.391 107.484 315.475 103.076 310.186 101.986C305.476 101.015 301.792 106.262 308.712 108.94C313.587 110.826 321.391 107.484 321.391 107.484Z" fill="#6ECBD2"/>
<path d="M330.512 115.844C330.512 115.844 325.59 113.81 319.481 115.627C313.372 117.445 313.635 120.214 316.581 121.564C319.528 122.914 326.227 120.679 330.512 115.844Z" fill="#6ECBD2"/>
<path d="M330.512 115.844C330.512 115.844 330.007 110.814 330.706 105.306C331.621 98.0921 337.295 97.5965 337.44 103.818C337.595 110.452 330.512 115.844 330.512 115.844Z" fill="#6ECBD2"/>
<path d="M340.754 127.091C340.754 127.091 340.017 120.779 342.873 115.371C345.728 109.963 350.625 112.634 347.91 118.81C345.519 124.249 340.754 127.091 340.754 127.091Z" fill="#6ECBD2"/>
<path d="M340.754 127.091C340.754 127.091 337.43 131.897 330.204 131.982C323.035 132.067 324.22 127.048 329.109 126.012C333.997 124.976 340.754 127.091 340.754 127.091Z" fill="#6ECBD2"/>
<path d="M312.885 92.8894C312.885 92.8894 308.153 86.6769 306.393 80.8473C303.99 72.8858 310.272 69.7809 312.998 75.78C315.722 81.7791 312.885 92.8894 312.885 92.8894Z" fill="#6ECBD2"/>
<path d="M321.391 107.484C321.391 107.484 319.184 95.6237 321.93 90.4437C324.677 85.2636 328.245 89.7193 326.949 95.5489C325.653 101.378 321.391 107.484 321.391 107.484Z" stroke="#2A2A68" stroke-miterlimit="10" stroke-linecap="round" stroke-linejoin="round"/>
<path d="M321.391 107.484C321.391 107.484 315.475 103.076 310.186 101.986C305.476 101.015 301.792 106.262 308.712 108.94C313.587 110.826 321.391 107.484 321.391 107.484Z" stroke="#2A2A68" stroke-miterlimit="10" stroke-linecap="round" stroke-linejoin="round"/>
<path d="M330.512 115.844C330.512 115.844 325.59 113.81 319.481 115.627C313.372 117.445 313.635 120.214 316.581 121.564C319.528 122.914 326.227 120.679 330.512 115.844Z" stroke="#2A2A68" stroke-miterlimit="10" stroke-linecap="round" stroke-linejoin="round"/>
<path d="M330.512 115.844C330.512 115.844 330.007 110.814 330.706 105.306C331.621 98.0921 337.295 97.5965 337.44 103.818C337.595 110.452 330.512 115.844 330.512 115.844Z" stroke="#2A2A68" stroke-miterlimit="10" stroke-linecap="round" stroke-linejoin="round"/>
<path d="M340.754 127.091C340.754 127.091 340.017 120.779 342.873 115.371C345.728 109.963 350.625 112.634 347.91 118.81C345.519 124.249 340.754 127.091 340.754 127.091Z" stroke="#2A2A68" stroke-miterlimit="10" stroke-linecap="round" stroke-linejoin="round"/>
<path d="M340.754 127.091C340.754 127.091 337.43 131.897 330.204 131.982C323.035 132.067 324.22 127.048 329.109 126.012C333.997 124.976 340.754 127.091 340.754 127.091Z" stroke="#2A2A68" stroke-miterlimit="10" stroke-linecap="round" stroke-linejoin="round"/>
<path d="M312.885 92.8894C312.885 92.8894 308.153 86.6769 306.393 80.8473C303.99 72.8858 310.272 69.7809 312.998 75.78C315.722 81.7791 312.885 92.8894 312.885 92.8894Z" stroke="#2A2A68" stroke-miterlimit="10" stroke-linecap="round" stroke-linejoin="round"/>
<path d="M347.29 144.236C345.153 127.814 335.132 120.023 323.157 109.209C317.756 104.331 314.807 98.1164 312.884 92.8908C310.862 87.3924 309.784 79.6494 309.784 79.6494" stroke="#2A2A68" stroke-miterlimit="10" stroke-linecap="round" stroke-linejoin="round"/>
<path d="M321.391 107.485C314.338 106.935 310.06 105.696 310.06 105.696" stroke="#2A2A68" stroke-miterlimit="10" stroke-linecap="round" stroke-linejoin="round"/>
<path d="M323.57 94.6772C323.57 94.6772 322.97 101.99 321.391 107.484" stroke="#2A2A68" stroke-miterlimit="10" stroke-linecap="round" stroke-linejoin="round"/>
<path d="M319.634 118.263C319.634 118.263 325.377 118.116 330.512 115.844" stroke="#2A2A68" stroke-miterlimit="10" stroke-linecap="round" stroke-linejoin="round"/>
<path d="M333.92 104.871C333.92 104.871 333.382 111.914 330.512 115.844" stroke="#2A2A68" stroke-miterlimit="10" stroke-linecap="round" stroke-linejoin="round"/>
<path d="M330.505 129.017C330.505 129.017 336.977 128.811 340.755 127.091" stroke="#2A2A68" stroke-miterlimit="10" stroke-linecap="round" stroke-linejoin="round"/>
<path d="M344.679 118.308C344.679 118.308 343.453 124.066 340.754 127.091" stroke="#2A2A68" stroke-miterlimit="10" stroke-linecap="round" stroke-linejoin="round"/>
<path d="M396.31 125.801C396.31 125.801 400.353 143.603 391.031 155.415" stroke="#2A2A68" stroke-miterlimit="10" stroke-linecap="round" stroke-linejoin="round"/>
<path d="M398.548 120.169L397.421 115.499L396.442 119.154L394.399 116.34L393.885 119.866L391.377 117.181L392.503 121.851C391.237 123.338 390.671 125.46 391.177 127.556C391.971 130.851 395.103 132.831 398.17 131.978C401.239 131.124 403.082 127.762 402.287 124.467C401.78 122.369 400.327 120.809 398.548 120.169Z" fill="#FFF9EF" stroke="#FFF9EF" stroke-miterlimit="10" stroke-linecap="round" stroke-linejoin="round"/>
<path d="M352.314 132.368V147.343" stroke="#2A2A68" stroke-miterlimit="10" stroke-linecap="round" stroke-linejoin="round"/>
<path d="M355.436 125.56V120.736L353.635 124.01L352.314 120.736L350.993 124.01L349.191 120.736V125.56C347.618 126.658 346.575 128.561 346.575 130.726C346.575 134.129 349.144 136.889 352.313 136.889C355.482 136.889 358.052 134.129 358.052 130.726C358.052 128.561 357.009 126.659 355.436 125.56Z" fill="#FFF9EF" stroke="#FFF9EF" stroke-miterlimit="10" stroke-linecap="round" stroke-linejoin="round"/>
<path d="M421.39 125.927C421.39 125.927 416.443 128.285 414.105 138.341" stroke="#2A2A68" stroke-miterlimit="10" stroke-linecap="round" stroke-linejoin="round"/>
<path d="M427.588 123.748L430.764 120.337L427.334 121.285L428.556 117.967L425.465 119.28L426.348 115.596L423.172 119.007C421.336 118.589 419.346 119.142 417.92 120.673C415.678 123.08 415.679 126.982 417.92 129.389C420.16 131.795 423.794 131.795 426.035 129.389C427.463 127.857 427.977 125.72 427.588 123.748Z" fill="#605575" stroke="#605575" stroke-miterlimit="10" stroke-linecap="round" stroke-linejoin="round"/>
<path d="M471.412 275.718C465.385 234.293 429.049 235.217 432.493 191.942C434.581 165.711 426.228 146.413 419.325 135.279C379.2 145.783 344.516 142.33 327.102 137.942C325.6 145.386 323.897 161.17 324.519 170.12C327.446 212.285 358.514 204.148 343.689 255.342C336.354 280.672 333.818 326.944 392.885 339.335C451.952 351.726 477.438 317.144 471.412 275.718Z" fill="#2A2A68"/>
<path d="M414.325 203.559C416.982 204.014 420.216 203.691 423.021 200.635C430.932 192.018 427.37 175.229 416.305 174.744C407.004 174.336 412.258 189.516 405.198 189.631C401.058 189.699 398.439 172.802 398.439 172.802C373.383 171.97 352.718 150.471 352.718 150.471C346.777 164.897 332.378 169.237 332.378 169.237C330.284 181.016 329.715 196.554 335.54 212.193C347.422 244.094 379.453 239.101 379.453 239.101V287.508C379.453 297.849 387.259 306.232 396.889 306.232C406.518 306.232 414.324 297.849 414.324 287.508V228.518C414.325 215.383 414.325 203.559 414.325 203.559Z" fill="#F57ABD"/>
<path d="M379.453 255.342C398.89 248.625 398.826 232.999 398.826 232.999C398.826 232.999 389.527 238.269 379.453 239.102V255.342Z" fill="#CE67AE"/>
<path d="M415.423 184.191L422.655 188.475" stroke="#2A2A68" stroke-width="2" stroke-miterlimit="10" stroke-linecap="round" stroke-linejoin="round"/>
<path d="M416.004 191.943L419.039 186.333" stroke="#2A2A68" stroke-width="2" stroke-miterlimit="10" stroke-linecap="round" stroke-linejoin="round"/>
<path d="M349.68 181.642C348.111 179.036 345.389 177.306 342.284 177.306C339.179 177.306 336.457 179.035 334.888 181.642" stroke="#2A2A68" stroke-width="2" stroke-miterlimit="10" stroke-linecap="round" stroke-linejoin="round"/>
<path d="M389.469 181.642C387.899 179.036 385.178 177.306 382.073 177.306C378.967 177.306 376.245 179.035 374.677 181.642" stroke="#2A2A68" stroke-width="2" stroke-miterlimit="10" stroke-linecap="round" stroke-linejoin="round"/>
<path d="M362.598 177.306C362.598 180.5 362.856 184.106 360.209 185.979C357.561 187.852 357.769 191.389 362.605 191.457" stroke="#2A2A68" stroke-width="2" stroke-miterlimit="10" stroke-linecap="round" stroke-linejoin="round"/>
<path d="M352.201 210.736C352.201 210.736 364.212 218.504 376.417 209.835" stroke="#2A2A68" stroke-width="2" stroke-miterlimit="10" stroke-linecap="round" stroke-linejoin="round"/>
<path d="M394.623 223.397C400.018 223.397 404.392 218.7 404.392 212.906C404.392 207.112 400.018 202.416 394.623 202.416C389.228 202.416 384.854 207.112 384.854 212.906C384.854 218.7 389.228 223.397 394.623 223.397Z" fill="#CE67AE"/>
<path d="M333.92 202.416C333.506 202.416 333.101 202.453 332.701 202.506C333.402 205.709 334.332 208.949 335.54 212.193C336.802 215.58 338.292 218.548 339.945 221.153C342.221 219.232 343.688 216.256 343.688 212.906C343.689 207.112 339.315 202.416 333.92 202.416Z" fill="#CE67AE"/>
<path d="M338.237 132.723C338.692 126.281 333.482 120.605 326.599 120.043C319.716 119.482 313.768 124.249 313.312 130.69C312.857 137.132 318.067 142.809 324.95 143.37C331.833 143.931 337.781 139.164 338.237 132.723Z" fill="#FBB217"/>
<path d="M338.237 132.723C338.692 126.281 333.482 120.605 326.599 120.043C319.716 119.482 313.768 124.249 313.312 130.69C312.857 137.132 318.067 142.809 324.95 143.37C331.833 143.931 337.781 139.164 338.237 132.723Z" stroke="#2A2A68" stroke-miterlimit="10" stroke-linecap="round" stroke-linejoin="round"/>
<path d="M313.316 130.677C313.316 130.677 358.968 127.146 363.101 157.422" stroke="#2A2A68" stroke-miterlimit="10" stroke-linecap="round" stroke-linejoin="round"/>
<path d="M319.245 121.589L325.544 130.904" stroke="#2A2A68" stroke-miterlimit="10" stroke-linecap="round" stroke-linejoin="round"/>
<path d="M331.893 131.719L325.796 119.989" stroke="#2A2A68" stroke-miterlimit="10" stroke-linecap="round" stroke-linejoin="round"/>
<path d="M333.515 132.012L329.264 143.004" stroke="#2A2A68" stroke-miterlimit="10" stroke-linecap="round" stroke-linejoin="round"/>
<path d="M327.22 131.07L322.042 142.79" stroke="#2A2A68" stroke-miterlimit="10" stroke-linecap="round" stroke-linejoin="round"/>
<path d="M320.701 130.605L314.131 135.696" stroke="#2A2A68" stroke-miterlimit="10" stroke-linecap="round" stroke-linejoin="round"/>
<path d="M376.112 111.118C376.112 111.118 369.764 128.704 369.245 150.573" stroke="#2A2A68" stroke-miterlimit="10" stroke-linecap="round" stroke-linejoin="round"/>
<path d="M384.776 117.089C384.776 117.089 378.592 121.745 372.49 124.347" stroke="#2A2A68" stroke-miterlimit="10" stroke-linecap="round" stroke-linejoin="round"/>
<path d="M383.919 128.138C383.919 128.138 377.355 132.719 370.648 134.419" stroke="#2A2A68" stroke-miterlimit="10" stroke-linecap="round" stroke-linejoin="round"/>
<path d="M382.074 136.182C382.074 136.182 378.022 134.539 375.302 132.826" stroke="#2A2A68" stroke-miterlimit="10" stroke-linecap="round" stroke-linejoin="round"/>
<path d="M374.283 140.896L369.449 145.83" stroke="#2A2A68" stroke-miterlimit="10" stroke-linecap="round" stroke-linejoin="round"/>
<path d="M364.644 134.077C364.644 134.077 367.595 138.631 369.851 140.874" stroke="#2A2A68" stroke-miterlimit="10" stroke-linecap="round" stroke-linejoin="round"/>
<path d="M368.022 126.937C368.022 126.937 369.73 129.945 371.034 131.937" stroke="#2A2A68" stroke-miterlimit="10" stroke-linecap="round" stroke-linejoin="round"/>
<path d="M364.709 116.076C364.709 116.076 367.878 121.922 372.152 125.932" stroke="#2A2A68" stroke-miterlimit="10" stroke-linecap="round" stroke-linejoin="round"/>
<path d="M370.424 117.957C370.424 117.957 371.176 121.209 372.744 123.211" stroke="#2A2A68" stroke-miterlimit="10" stroke-linecap="round" stroke-linejoin="round"/>
<path d="M369.437 123.007C369.437 123.007 366.146 123.701 362.109 123.841" stroke="#2A2A68" stroke-miterlimit="10" stroke-linecap="round" stroke-linejoin="round"/>
<path d="M382.592 115.441C383.439 114.146 385.104 113.833 386.311 114.744C387.517 115.654 387.808 117.442 386.96 118.736C386.113 120.032 384.448 120.344 383.242 119.434C382.035 118.525 381.744 116.737 382.592 115.441Z" fill="#605575" stroke="#605575" stroke-miterlimit="10" stroke-linecap="round" stroke-linejoin="round"/>
<path d="M382.251 126.258C383.098 124.962 384.763 124.65 385.969 125.56C387.176 126.471 387.467 128.258 386.619 129.554C385.771 130.85 384.107 131.162 382.9 130.252C381.695 129.341 381.404 127.554 382.251 126.258Z" fill="#FFF9EF" stroke="#FFF9EF" stroke-miterlimit="10" stroke-linecap="round" stroke-linejoin="round"/>
<path d="M362.525 114.429C363.373 113.134 365.038 112.821 366.244 113.732C367.451 114.642 367.741 116.43 366.894 117.724C366.046 119.02 364.381 119.332 363.175 118.422C361.968 117.513 361.678 115.725 362.525 114.429Z" fill="#FFF9EF" stroke="#FFF9EF" stroke-miterlimit="10" stroke-linecap="round" stroke-linejoin="round"/>
<path d="M368.682 117.6C369.673 116.085 371.62 115.72 373.032 116.784C374.443 117.848 374.783 119.94 373.792 121.455C372.801 122.971 370.854 123.337 369.442 122.272C368.031 121.207 367.691 119.115 368.682 117.6Z" fill="#605575" stroke="#605575" stroke-miterlimit="10" stroke-linecap="round" stroke-linejoin="round"/>
<path d="M359.924 122.193C360.772 120.897 362.436 120.585 363.643 121.495C364.849 122.405 365.14 124.193 364.292 125.489C363.445 126.785 361.78 127.097 360.574 126.187C359.367 125.276 359.076 123.489 359.924 122.193Z" fill="#FFF9EF" stroke="#FFF9EF" stroke-miterlimit="10" stroke-linecap="round" stroke-linejoin="round"/>
<path d="M379.89 134.533C380.737 133.238 382.402 132.925 383.609 133.836C384.815 134.746 385.106 136.534 384.258 137.829C383.411 139.125 381.746 139.437 380.54 138.527C379.333 137.617 379.042 135.829 379.89 134.533Z" fill="#FFF9EF" stroke="#FFF9EF" stroke-miterlimit="10" stroke-linecap="round" stroke-linejoin="round"/>
<path d="M373.424 108.865C374.272 107.57 375.937 107.257 377.143 108.168C378.349 109.078 378.64 110.866 377.792 112.161C376.945 113.457 375.28 113.769 374.073 112.859C372.868 111.949 372.577 110.161 373.424 108.865Z" fill="#FFF9EF" stroke="#FFF9EF" stroke-miterlimit="10" stroke-linecap="round" stroke-linejoin="round"/>
<path d="M365.838 125.29C366.685 123.995 368.35 123.682 369.557 124.593C370.763 125.503 371.054 127.291 370.206 128.586C369.359 129.882 367.694 130.194 366.488 129.284C365.282 128.374 364.99 126.586 365.838 125.29Z" fill="#FFF9EF" stroke="#FFF9EF" stroke-miterlimit="10" stroke-linecap="round" stroke-linejoin="round"/>
<path d="M373.279 118.022C374.331 116.415 376.396 116.027 377.892 117.156C379.389 118.284 379.75 120.502 378.699 122.109C377.648 123.716 375.583 124.104 374.086 122.976C372.589 121.847 372.228 119.629 373.279 118.022Z" fill="#FFF9EF" stroke="#FFF9EF" stroke-miterlimit="10" stroke-linecap="round" stroke-linejoin="round"/>
<path d="M372.446 127.984C373.559 126.282 375.746 125.871 377.331 127.066C378.916 128.262 379.298 130.611 378.185 132.313C377.071 134.015 374.884 134.426 373.3 133.23C371.714 132.035 371.332 129.686 372.446 127.984Z" fill="#605575" stroke="#605575" stroke-miterlimit="10" stroke-linecap="round" stroke-linejoin="round"/>
<path d="M371.414 138.731C372.527 137.03 374.714 136.618 376.299 137.814C377.884 139.01 378.266 141.359 377.153 143.06C376.039 144.762 373.852 145.173 372.268 143.978C370.682 142.783 370.3 140.434 371.414 138.731Z" fill="#FFF9EF" stroke="#FFF9EF" stroke-miterlimit="10" stroke-linecap="round" stroke-linejoin="round"/>
<path d="M361.774 131.912C362.887 130.21 365.074 129.799 366.659 130.995C368.244 132.191 368.627 134.539 367.513 136.241C366.399 137.943 364.212 138.354 362.628 137.158C361.043 135.963 360.661 133.614 361.774 131.912Z" fill="#605575" stroke="#605575" stroke-miterlimit="10" stroke-linecap="round" stroke-linejoin="round"/>
</g>
<path d="M513.241 253.553C506.031 253.553 500.186 258.922 500.186 265.546C500.186 268.362 501.249 270.946 503.019 272.992L501.303 281.63L507.107 276.13C508.936 277.027 511.024 277.538 513.242 277.538C520.452 277.538 526.297 272.169 526.297 265.545C526.297 258.921 520.451 253.553 513.241 253.553Z" stroke="#FFF9EF" stroke-width="2" stroke-miterlimit="10" stroke-linecap="round" stroke-linejoin="round"/>
<path d="M34.0554 167.926C41.2658 167.926 47.1108 173.295 47.1108 179.919C47.1108 182.735 46.0468 185.319 44.2778 187.365L45.9932 196.003L40.1894 190.503C38.3604 191.4 36.2728 191.911 34.0554 191.911C26.845 191.911 21 186.542 21 179.918C21 173.294 26.845 167.926 34.0554 167.926Z" stroke="#FFF9EF" stroke-width="2" stroke-miterlimit="10" stroke-linecap="round" stroke-linejoin="round"/>
<path d="M268.916 229.309C261.705 229.309 255.86 234.678 255.86 241.302C255.86 244.118 256.924 246.702 258.693 248.748L256.978 257.386L262.782 251.886C264.611 252.783 266.697 253.294 268.916 253.294C276.126 253.294 281.971 247.925 281.971 241.301C281.971 234.678 276.126 229.309 268.916 229.309Z" stroke="#2A2A68" stroke-width="2" stroke-miterlimit="10" stroke-linecap="round" stroke-linejoin="round"/>
<path d="M38.8875 81.634V97.238" stroke="#2A2A68" stroke-width="2" stroke-miterlimit="10" stroke-linecap="round" stroke-linejoin="round"/>
<path d="M31.906 89.436H45.8687" stroke="#2A2A68" stroke-width="2" stroke-miterlimit="10" stroke-linecap="round" stroke-linejoin="round"/>
<path d="M298.465 296.311V311.914" stroke="#FFF9EF" stroke-width="2" stroke-miterlimit="10" stroke-linecap="round" stroke-linejoin="round"/>
<path d="M291.484 304.113H305.445" stroke="#FFF9EF" stroke-width="2" stroke-miterlimit="10" stroke-linecap="round" stroke-linejoin="round"/>
<path d="M285.778 111.729V127.332" stroke="#FFF9EF" stroke-width="2" stroke-miterlimit="10" stroke-linecap="round" stroke-linejoin="round"/>
<path d="M278.797 119.531H292.76" stroke="#FFF9EF" stroke-width="2" stroke-miterlimit="10" stroke-linecap="round" stroke-linejoin="round"/>
<path d="M556.019 174.163V189.767" stroke="#2A2A68" stroke-width="2" stroke-miterlimit="10" stroke-linecap="round" stroke-linejoin="round"/>
<path d="M549.038 181.965H563" stroke="#2A2A68" stroke-width="2" stroke-miterlimit="10" stroke-linecap="round" stroke-linejoin="round"/>
<path d="M295.39 166.355C295.39 164.396 293.969 162.808 292.216 162.808C290.463 162.808 289.042 164.396 289.042 166.355C289.042 168.314 290.463 169.902 292.216 169.902C293.969 169.902 295.39 168.314 295.39 166.355Z" stroke="#FFF9EF" stroke-width="2" stroke-miterlimit="10" stroke-linecap="round" stroke-linejoin="round"/>
<path d="M89.7702 56.547C89.7702 54.588 88.3492 53 86.5963 53C84.8433 53 83.4224 54.588 83.4224 56.547C83.4224 58.506 84.8433 60.094 86.5963 60.094C88.3483 60.094 89.7702 58.506 89.7702 56.547Z" stroke="#FFF9EF" stroke-width="2" stroke-miterlimit="10" stroke-linecap="round" stroke-linejoin="round"/>
<path d="M61.078 262.261C62.8309 262.261 64.2519 260.673 64.2519 258.714C64.2519 256.755 62.8309 255.167 61.078 255.167C59.3251 255.167 57.9041 256.755 57.9041 258.714C57.9041 260.673 59.3251 262.261 61.078 262.261Z" stroke="#2A2A68" stroke-width="2" stroke-miterlimit="10" stroke-linecap="round" stroke-linejoin="round"/>
<path d="M216.671 331.952C218.424 331.952 219.845 330.364 219.845 328.405C219.845 326.446 218.424 324.858 216.671 324.858C214.918 324.858 213.497 326.446 213.497 328.405C213.497 330.364 214.918 331.952 216.671 331.952Z" stroke="#2A2A68" stroke-width="2" stroke-miterlimit="10" stroke-linecap="round" stroke-linejoin="round"/>
<path d="M356.363 335.499C358.116 335.499 359.537 333.911 359.537 331.952C359.537 329.993 358.116 328.405 356.363 328.405C354.61 328.405 353.189 329.993 353.189 331.952C353.189 333.911 354.61 335.499 356.363 335.499Z" stroke="#2A2A68" stroke-width="2" stroke-miterlimit="10" stroke-linecap="round" stroke-linejoin="round"/>
<path d="M278.797 361.222C280.55 361.222 281.971 359.634 281.971 357.675C281.971 355.716 280.55 354.128 278.797 354.128C277.044 354.128 275.623 355.716 275.623 357.675C275.623 359.634 277.044 361.222 278.797 361.222Z" stroke="#FFF9EF" stroke-width="2" stroke-miterlimit="10" stroke-linecap="round" stroke-linejoin="round"/>
<path d="M540.213 123.078C541.966 123.078 543.387 121.49 543.387 119.531C543.387 117.572 541.966 115.984 540.213 115.984C538.461 115.984 537.04 117.572 537.04 119.531C537.04 121.49 538.461 123.078 540.213 123.078Z" stroke="#FFF9EF" stroke-width="2" stroke-miterlimit="10" stroke-linecap="round" stroke-linejoin="round"/>
</svg>
