<svg width="30" height="24" viewBox="0 0 30 24" fill="none" xmlns="http://www.w3.org/2000/svg">
<path d="M8.92309 21.2284C6.37249 23.7515 2.05274 23.7414 0.84635 20.3787C0.610156 19.7204 0.421311 19.0434 0.282415 18.3527C-0.284692 15.5323 0.0063682 12.6091 1.11879 9.95239C2.23121 7.29579 4.11503 5.02511 6.53203 3.42755C8.94906 1.82999 11.7907 0.977295 14.6976 0.977295C17.6045 0.977295 20.4461 1.82999 22.863 3.42755C25.2801 5.02511 27.1639 7.29579 28.2763 9.95248C29.3887 12.6091 29.6797 15.5323 29.1127 18.3527C28.9738 19.0434 28.7849 19.7204 28.5487 20.3787C27.3423 23.7414 23.0226 23.7515 20.472 21.2284L16.5347 17.3336C16.1586 16.9615 16.1974 16.3479 16.3012 15.8318C16.3643 15.5181 16.3319 15.1928 16.2081 14.8973C16.0843 14.6017 15.8748 14.3491 15.6059 14.1714C15.3371 13.9937 15.0209 13.8989 14.6976 13.8989C14.3742 13.8989 14.0581 13.9937 13.7892 14.1714C13.5202 14.3491 13.3107 14.6017 13.1869 14.8973C13.0632 15.1928 13.0308 15.5181 13.0939 15.8318C13.1977 16.3479 13.2365 16.9615 12.8603 17.3336L8.92309 21.2284Z" fill="url(#paint0_linear_242_5599)"/>
<defs>
<linearGradient id="paint0_linear_242_5599" x1="28.0572" y1="8.24678" x2="1.9691" y2="8.24678" gradientUnits="userSpaceOnUse">
<stop stop-color="#161490"/>
<stop offset="0.510417" stop-color="#7476ED"/>
<stop offset="1" stop-color="#E56F8C"/>
</linearGradient>
</defs>
</svg>
