<svg width="131" height="32" viewBox="0 0 131 32" fill="none" xmlns="http://www.w3.org/2000/svg">
<path d="M8.92309 25.2284C6.37249 27.7515 2.05274 27.7414 0.84635 24.3787C0.610156 23.7204 0.421311 23.0434 0.282415 22.3527C-0.284692 19.5323 0.0063682 16.6091 1.11879 13.9524C2.23121 11.2958 4.11503 9.02511 6.53203 7.42755C8.94906 5.82999 11.7907 4.97729 14.6976 4.97729C17.6045 4.9773 20.4461 5.82999 22.863 7.42755C25.2801 9.02511 27.1639 11.2958 28.2763 13.9525C29.3887 16.6091 29.6797 19.5323 29.1127 22.3527C28.9738 23.0434 28.7849 23.7204 28.5487 24.3787C27.3423 27.7414 23.0226 27.7515 20.472 25.2284L16.5347 21.3336C16.1586 20.9615 16.1974 20.3479 16.3012 19.8318C16.3643 19.5181 16.3319 19.1928 16.2081 18.8973C16.0843 18.6017 15.8748 18.3491 15.6059 18.1714C15.3371 17.9937 15.0209 17.8989 14.6976 17.8989C14.3742 17.8989 14.0581 17.9937 13.7892 18.1714C13.5202 18.3491 13.3107 18.6017 13.1869 18.8973C13.0632 19.1928 13.0308 19.5181 13.0939 19.8318C13.1977 20.3479 13.2365 20.9615 12.8603 21.3336L8.92309 25.2284Z" fill="url(#paint0_linear_242_5598)"/>
<path d="M46.704 24.9053C45.744 24.9053 44.888 24.4093 44.136 23.4173C43.112 23.7213 42.176 23.8733 41.328 23.8733C40.4 23.8733 39.672 23.6973 39.144 23.3453C38.616 23.0093 38.352 22.5853 38.352 22.0733C38.352 21.6733 38.52 21.2413 38.856 20.7773C39.192 20.3133 39.712 19.8573 40.416 19.4093C40.704 19.2333 41.016 19.0573 41.352 18.8813C41.704 18.7053 42.08 18.5453 42.48 18.4013C42.432 17.8893 42.408 17.3453 42.408 16.7693C42.408 15.4573 42.552 14.0173 42.84 12.4493C43.128 10.8653 43.608 9.16129 44.28 7.33729C43.096 7.92929 42.008 8.63329 41.016 9.44929C40.024 10.2493 39.256 11.0733 38.712 11.9213C38.536 12.2093 38.32 12.3533 38.064 12.3533C37.888 12.3533 37.8 12.2653 37.8 12.0893C37.8 11.9613 37.872 11.7693 38.016 11.5133C38.144 11.2573 38.376 10.9373 38.712 10.5533C39.352 9.81729 40.184 9.10529 41.208 8.41729C42.232 7.72929 43.352 7.13729 44.568 6.64129C44.84 5.88929 45.152 5.15329 45.504 4.43329C45.6 4.22529 45.744 4.12129 45.936 4.12129C46.064 4.12129 46.168 4.16929 46.248 4.26529C46.344 4.34529 46.392 4.44929 46.392 4.57729C46.392 4.64129 46.376 4.72129 46.344 4.81729C46.248 5.04129 46.152 5.26529 46.056 5.48929C45.976 5.71329 45.896 5.93729 45.816 6.16129C46.04 6.08129 46.272 6.00929 46.512 5.94529C46.752 5.88129 46.984 5.81729 47.208 5.75329C48.456 5.46529 49.568 5.32129 50.544 5.32129C51.824 5.32129 52.88 5.53729 53.712 5.96929C54.544 6.40129 55.16 6.99329 55.56 7.74529C55.96 8.48129 56.16 9.32129 56.16 10.2653C56.16 11.2413 55.952 12.2733 55.536 13.3613C55.136 14.4493 54.544 15.5453 53.76 16.6493C52.976 17.7373 52 18.7693 50.832 19.7453C49.68 20.7213 48.36 21.5853 46.872 22.3373C46.088 22.7213 45.344 23.0333 44.64 23.2733C45.024 23.6733 45.416 23.9533 45.816 24.1133C46.216 24.2733 46.544 24.3533 46.8 24.3533C47.024 24.3533 47.184 24.3053 47.28 24.2093C47.424 24.0493 47.576 23.9693 47.736 23.9693C47.848 23.9693 47.944 24.0013 48.024 24.0653C48.104 24.1293 48.144 24.2013 48.144 24.2813C48.144 24.4093 48.04 24.5293 47.832 24.6413C47.64 24.7373 47.448 24.8013 47.256 24.8333C47.064 24.8813 46.88 24.9053 46.704 24.9053ZM44.4 22.9853C44.768 22.8573 45.152 22.6973 45.552 22.5053C45.968 22.3293 46.392 22.1133 46.824 21.8573C48.632 20.8173 50.128 19.6493 51.312 18.3533C52.512 17.0413 53.408 15.7133 54 14.3693C54.608 13.0253 54.912 11.7773 54.912 10.6253C54.912 9.24929 54.496 8.12129 53.664 7.24129C52.832 6.34529 51.584 5.89729 49.92 5.89729C49.12 5.89729 48.216 6.01729 47.208 6.25729C46.936 6.32129 46.664 6.40129 46.392 6.49729C46.12 6.57729 45.848 6.67329 45.576 6.78529C44.6 9.34529 43.928 11.5613 43.56 13.4333C43.192 15.2893 43.016 16.8733 43.032 18.1853C43.816 17.9133 44.656 17.6973 45.552 17.5373C46.464 17.3773 47.408 17.2973 48.384 17.2973C48.56 17.2973 48.736 17.3053 48.912 17.3213C49.104 17.3213 49.296 17.3293 49.488 17.3453C49.696 17.3613 49.8 17.4093 49.8 17.4893C49.8 17.6173 49.56 17.6813 49.08 17.6813C48.872 17.6813 48.656 17.6733 48.432 17.6573C48.224 17.6413 48.016 17.6333 47.808 17.6333C46.912 17.6333 46.056 17.7213 45.24 17.8973C44.424 18.0733 43.688 18.2973 43.032 18.5693C43.08 19.6413 43.232 20.5373 43.488 21.2573C43.744 21.9613 44.048 22.5373 44.4 22.9853ZM42 23.4173C42.56 23.4173 43.2 23.3213 43.92 23.1293C43.584 22.6173 43.288 22.0013 43.032 21.2813C42.792 20.5453 42.616 19.7133 42.504 18.7853C41.736 19.1693 41.112 19.5773 40.632 20.0093C40.264 20.3293 39.992 20.6493 39.816 20.9693C39.64 21.2893 39.552 21.5853 39.552 21.8573C39.552 22.3053 39.768 22.6733 40.2 22.9613C40.632 23.2653 41.232 23.4173 42 23.4173ZM58.4944 22.2893C57.9184 22.2893 57.4144 21.9533 56.9824 21.2813C56.5664 20.5933 56.3584 19.5133 56.3584 18.0413C56.3584 17.0813 56.4784 16.3133 56.7184 15.7373C56.9584 15.1453 57.2544 14.7133 57.6064 14.4413C57.9584 14.1693 58.2944 14.0333 58.6144 14.0333C58.9344 14.0333 59.2064 14.1453 59.4304 14.3693C59.6544 14.5773 59.7664 14.8813 59.7664 15.2813C59.7664 15.6653 59.6544 16.0733 59.4304 16.5053C59.2064 16.9213 58.9344 17.3053 58.6144 17.6573C58.3104 17.9933 58.0064 18.2173 57.7024 18.3293C57.6384 18.3613 57.5584 18.3773 57.4624 18.3773C57.3984 18.3773 57.3664 18.3533 57.3664 18.3053C57.3664 18.1773 57.4944 18.0333 57.7504 17.8733C58.0704 17.6493 58.3744 17.3133 58.6624 16.8653C58.9504 16.4013 59.0944 15.9933 59.0944 15.6413C59.0944 15.4333 59.0464 15.2733 58.9504 15.1613C58.8544 15.0333 58.7424 14.9693 58.6144 14.9693C58.3744 14.9693 58.1104 15.1613 57.8224 15.5453C57.5504 15.9133 57.3504 16.5533 57.2224 17.4653C57.1904 17.7213 57.1584 17.9693 57.1264 18.2093C57.1104 18.4333 57.1024 18.6573 57.1024 18.8813C57.1024 19.7773 57.2384 20.4813 57.5104 20.9933C57.7824 21.4893 58.1424 21.7373 58.5904 21.7373C58.9744 21.7373 59.4064 21.5133 59.8864 21.0653C60.3664 20.6013 60.8384 19.8813 61.3024 18.9053C61.4144 18.6493 61.5424 18.5213 61.6864 18.5213C61.7824 18.5213 61.8304 18.5853 61.8304 18.7133C61.8304 18.8253 61.7984 18.9453 61.7344 19.0733C61.3184 20.0973 60.8144 20.8893 60.2224 21.4493C59.6304 22.0093 59.0544 22.2893 58.4944 22.2893ZM66.2042 22.2893C65.9962 22.2893 65.8122 22.1613 65.6522 21.9053C65.4922 21.6333 65.4122 21.1213 65.4122 20.3693C65.4122 19.7773 65.4602 19.1293 65.5562 18.4253C65.6522 17.7053 65.7562 16.9933 65.8682 16.2893C65.9962 15.5853 66.1082 14.9613 66.2042 14.4173C66.3002 13.8573 66.3482 13.4493 66.3482 13.1933C66.3482 12.7453 66.2122 12.5213 65.9402 12.5213C65.6842 12.5213 65.4202 12.6493 65.1482 12.9053C64.8922 13.1613 64.6442 13.4733 64.4042 13.8413C64.1802 14.2093 63.9802 14.5693 63.8042 14.9213C63.6442 15.2573 63.5402 15.5053 63.4922 15.6653C63.2682 16.2893 63.1082 16.9133 63.0122 17.5373C62.9162 18.1453 62.8682 18.7773 62.8682 19.4333C62.8682 19.7053 62.8762 19.9853 62.8922 20.2733C62.9242 20.5613 62.9482 20.8573 62.9642 21.1613C62.9962 21.3213 62.9482 21.5213 62.8202 21.7613C62.7082 21.9853 62.5722 22.0973 62.4122 22.0973C62.3002 22.0973 62.2042 22.0253 62.1242 21.8813C62.0442 21.7373 61.9882 21.6093 61.9562 21.4973C61.8922 21.3053 61.8442 21.1053 61.8122 20.8973C61.7802 20.6733 61.7482 20.4813 61.7162 20.3213C61.6042 19.6653 61.5002 19.0013 61.4042 18.3293C61.3082 17.6413 61.1722 16.9773 60.9962 16.3373C60.9482 16.1613 60.8842 15.9773 60.8042 15.7853C60.7402 15.5773 60.6362 15.4093 60.4922 15.2813C60.4602 15.2493 60.4122 15.2173 60.3482 15.1853C60.2842 15.1373 60.2522 15.0973 60.2522 15.0653C60.2522 15.0013 60.3402 14.9693 60.5162 14.9693C60.7082 14.9693 60.9002 15.0653 61.0922 15.2573C61.2842 15.4493 61.4602 15.7053 61.6202 16.0253C61.8122 16.4253 61.9722 16.8493 62.1002 17.2973C62.2442 17.7453 62.3562 18.1053 62.4362 18.3773C62.5322 17.8013 62.6362 17.2893 62.7482 16.8413C62.8602 16.4573 63.0122 16.0013 63.2042 15.4733C63.3962 14.9293 63.6362 14.4013 63.9242 13.8893C64.2122 13.3613 64.5562 12.9293 64.9562 12.5933C65.3562 12.2413 65.8202 12.0653 66.3482 12.0653C67.1162 12.0653 67.5002 12.5133 67.5002 13.4093C67.5002 13.8733 67.4202 14.3853 67.2602 14.9453C67.1002 15.4893 66.9242 15.9933 66.7322 16.4573C66.5562 16.9213 66.4362 17.2413 66.3722 17.4173C66.2922 17.6413 66.2042 17.9453 66.1082 18.3293C66.0282 18.7133 65.9562 19.1133 65.8922 19.5293C65.8442 19.9453 65.8202 20.3293 65.8202 20.6813C65.8202 20.9853 65.8522 21.2413 65.9162 21.4493C65.9962 21.6413 66.1162 21.7373 66.2762 21.7373C66.4362 21.7373 66.5802 21.6653 66.7082 21.5213C66.8362 21.3613 66.9402 21.2173 67.0202 21.0893C67.1162 20.9613 67.1642 20.9373 67.1642 21.0173C67.1962 21.2573 67.1082 21.5293 66.9002 21.8333C66.7082 22.1373 66.4762 22.2893 66.2042 22.2893ZM68.1274 31.5053C67.4874 31.5053 66.9434 31.3133 66.4954 30.9293C66.0314 30.5613 65.7994 30.0653 65.7994 29.4413C65.7994 28.8173 66.0954 28.0893 66.6874 27.2573C67.2794 26.4253 68.2794 25.5613 69.6874 24.6653C70.0074 24.4413 70.3434 24.2413 70.6954 24.0653C71.0634 23.8893 71.4394 23.7053 71.8234 23.5133C71.9194 23.4653 71.9914 23.4413 72.0394 23.4413C72.1034 23.4413 72.1354 23.4653 72.1354 23.5133C72.1354 23.6253 72.0234 23.7453 71.7994 23.8733C71.0314 24.2573 70.3754 24.6573 69.8314 25.0733C69.3034 25.5053 68.8154 26.0093 68.3674 26.5853C68.1274 26.8893 67.8714 27.2413 67.5994 27.6413C67.3434 28.0573 67.1274 28.4653 66.9514 28.8653C66.7594 29.2653 66.6634 29.6253 66.6634 29.9453C66.6634 30.6173 66.9834 30.9533 67.6234 30.9533C67.8954 30.9533 68.2154 30.8733 68.5834 30.7133C68.9514 30.5693 69.3514 30.3293 69.7834 29.9933C70.8714 29.1453 71.6394 28.2013 72.0874 27.1613C72.5354 26.1373 72.7594 24.9373 72.7594 23.5613C72.7594 22.5373 72.6634 21.4013 72.4714 20.1533C72.2954 18.8733 72.1994 17.6493 72.1834 16.4813C72.1034 16.9773 71.9674 17.5773 71.7754 18.2813C71.5994 18.9693 71.3834 19.6253 71.1274 20.2493C70.8714 20.8733 70.5834 21.4093 70.2634 21.8573C69.9594 22.3053 69.5674 22.5293 69.0874 22.5293C68.7514 22.5293 68.4634 22.3613 68.2234 22.0253C67.9994 21.6893 67.8874 21.1773 67.8874 20.4893C67.8874 19.9773 67.9754 19.3693 68.1514 18.6653C68.3274 17.9613 68.5674 17.2813 68.8714 16.6253C69.1754 15.9533 69.5114 15.4013 69.8794 14.9693C70.2634 14.5213 70.6474 14.2973 71.0314 14.2973C71.3034 14.2973 71.4954 14.4093 71.6074 14.6333C71.7354 14.8413 71.7994 15.0573 71.7994 15.2813C71.7994 15.4573 71.7674 15.6093 71.7034 15.7373C71.6394 15.8653 71.5434 15.9293 71.4154 15.9293C71.2874 15.9133 71.1914 15.8573 71.1274 15.7613C71.0794 15.6493 71.0314 15.5453 70.9834 15.4493C70.9354 15.3373 70.8474 15.2813 70.7194 15.2813C70.4634 15.2813 70.2154 15.4493 69.9754 15.7853C69.7514 16.1053 69.5434 16.5293 69.3514 17.0573C69.1754 17.5693 69.0314 18.1133 68.9194 18.6893C68.8234 19.2653 68.7754 19.7933 68.7754 20.2733C68.7754 20.7213 68.8234 21.0893 68.9194 21.3773C69.0314 21.6653 69.1994 21.8173 69.4234 21.8333C69.6954 21.8493 69.9594 21.6733 70.2154 21.3053C70.4714 20.9373 70.7034 20.4653 70.9114 19.8893C71.1354 19.3133 71.3274 18.7053 71.4874 18.0653C71.6634 17.4093 71.8074 16.8013 71.9194 16.2413C72.0474 15.6653 72.1354 15.2173 72.1834 14.8973C72.3114 14.0493 72.4314 13.5133 72.5434 13.2893C72.6554 13.0493 72.7754 12.9293 72.9034 12.9293C73.0154 12.9293 73.1114 13.0333 73.1914 13.2413C73.2874 13.4493 73.3354 13.6413 73.3354 13.8173C73.3354 13.9453 73.3274 14.0333 73.3114 14.0813C73.1194 15.1373 73.0234 16.2173 73.0234 17.3213C73.0234 17.7853 73.0394 18.2493 73.0714 18.7133C73.1034 19.1613 73.1434 19.6093 73.1914 20.0573C73.2874 20.9853 73.3354 21.8493 73.3354 22.6493C73.3354 24.2813 73.1674 25.6573 72.8314 26.7773C72.5114 27.9133 72.0874 28.8253 71.5594 29.5133C71.0314 30.2173 70.4634 30.7213 69.8554 31.0253C69.2634 31.3453 68.6874 31.5053 68.1274 31.5053ZM75.6671 21.7853C75.3791 21.7853 75.1711 21.6653 75.0431 21.4253C74.9151 21.1693 74.8511 20.8733 74.8511 20.5373C74.8511 20.1053 74.9231 19.6013 75.0671 19.0253C75.2271 18.4493 75.4351 17.8573 75.6911 17.2493C75.9471 16.6253 76.2351 16.0573 76.5551 15.5453C76.8911 15.0173 77.2431 14.5933 77.6111 14.2733C77.9791 13.9373 78.3391 13.7693 78.6911 13.7693C79.0111 13.7693 79.2831 13.9133 79.5071 14.2013C79.7471 14.4733 79.8671 14.7853 79.8671 15.1373C79.8671 15.3453 79.8351 15.5213 79.7711 15.6653C79.7071 15.7933 79.6351 15.8573 79.5551 15.8573C79.4911 15.8573 79.4351 15.8093 79.3871 15.7133C79.2271 15.3453 79.0511 15.0813 78.8591 14.9213C78.6831 14.7613 78.4991 14.6813 78.3071 14.6813C77.9871 14.6813 77.6671 14.8653 77.3471 15.2333C77.0431 15.5853 76.7951 15.9933 76.6031 16.4573C76.4431 16.8093 76.2911 17.2333 76.1471 17.7293C76.0191 18.2093 75.9071 18.6893 75.8111 19.1693C75.7311 19.6333 75.6911 20.0173 75.6911 20.3213C75.6911 20.8653 75.8191 21.1373 76.0751 21.1373C76.3951 21.1373 76.8031 20.7853 77.2991 20.0813C77.6671 19.5693 77.9951 18.9773 78.2831 18.3053C78.5871 17.6333 78.8431 17.0493 79.0511 16.5533C79.1311 16.3933 79.2191 16.2893 79.3151 16.2413C79.4111 16.1933 79.4991 16.1693 79.5791 16.1693C79.7711 16.1693 79.8911 16.2493 79.9391 16.4093C80.0031 16.5693 80.0351 16.7053 80.0351 16.8173C80.0351 17.2333 79.9951 17.6093 79.9151 17.9453C79.8351 18.2653 79.7951 18.6573 79.7951 19.1213C79.7951 19.4573 79.8191 19.7693 79.8671 20.0573C79.9311 20.3293 80.0351 20.4653 80.1791 20.4653C80.3551 20.4653 80.5791 20.2413 80.8511 19.7933C80.9151 19.6653 81.0111 19.6013 81.1391 19.6013C81.2831 19.6013 81.3551 19.6733 81.3551 19.8173C81.3551 20.0253 81.2111 20.2493 80.9231 20.4893C80.6351 20.7133 80.3471 20.8253 80.0591 20.8253C79.6751 20.8253 79.4031 20.6653 79.2431 20.3453C78.9711 19.8173 78.8351 19.3453 78.8351 18.9293C78.8351 18.4973 78.8271 18.2013 78.8111 18.0413C78.7311 18.2333 78.5791 18.5373 78.3551 18.9533C78.1311 19.3533 77.8671 19.7773 77.5631 20.2253C77.2591 20.6573 76.9391 21.0253 76.6031 21.3293C76.2671 21.6333 75.9551 21.7853 75.6671 21.7853ZM84.3238 23.1773C83.8118 23.1773 83.4198 22.9373 83.1478 22.4573C82.8758 21.9933 82.7398 21.4813 82.7398 20.9213C82.7398 20.3933 82.8278 19.8413 83.0038 19.2653C83.1798 18.6893 83.3958 18.1213 83.6518 17.5613C83.9238 17.0013 84.2038 16.4893 84.4918 16.0253C84.2038 16.1373 83.9318 16.1933 83.6758 16.1933C83.5478 16.1933 83.4358 16.1773 83.3398 16.1453C83.2438 16.1133 83.1638 16.0893 83.0998 16.0733C83.0198 16.2653 82.8758 16.5853 82.6678 17.0333C82.4758 17.4813 82.2678 17.9533 82.0438 18.4493C81.8358 18.9293 81.6518 19.3373 81.4918 19.6733C81.2358 20.2173 81.0118 20.4893 80.8198 20.4893C80.7238 20.4893 80.6758 20.4253 80.6758 20.2973C80.6758 20.2013 80.7158 20.0733 80.7958 19.9133C81.1638 19.2253 81.5078 18.5453 81.8278 17.8733C82.1638 17.2013 82.4678 16.5533 82.7398 15.9293C82.7078 15.8493 82.6758 15.7453 82.6438 15.6173C82.6118 15.4733 82.5958 15.3213 82.5958 15.1613C82.5958 14.9853 82.6118 14.8013 82.6438 14.6093C82.6918 14.4013 82.7558 14.2013 82.8358 14.0093C82.8838 13.8973 82.9718 13.7373 83.0998 13.5293C83.2278 13.3053 83.3718 13.1053 83.5318 12.9293C83.6918 12.7373 83.8438 12.6413 83.9878 12.6413C84.2598 12.6413 84.3958 12.7853 84.3958 13.0733C84.3958 13.3453 84.3078 13.6573 84.1318 14.0093C83.9718 14.3613 83.8038 14.6893 83.6278 14.9933C83.4518 15.2813 83.3638 15.4973 83.3638 15.6413C83.3638 15.7693 83.4278 15.8333 83.5558 15.8333C83.7318 15.8333 83.9478 15.7453 84.2038 15.5693C84.4758 15.3773 84.6918 15.2013 84.8518 15.0413C84.9318 14.9613 85.0598 14.8413 85.2358 14.6813C85.4118 14.5053 85.5798 14.4173 85.7398 14.4173C85.8998 14.4173 86.0038 14.4653 86.0518 14.5613C86.1158 14.6573 86.1478 14.7693 86.1478 14.8973C86.1478 15.0413 86.0838 15.2253 85.9558 15.4493C85.8278 15.6573 85.6758 15.8653 85.4998 16.0733C85.3398 16.2813 85.2038 16.4573 85.0918 16.6013C84.8678 16.9373 84.6118 17.3613 84.3238 17.8733C84.0358 18.3853 83.7878 18.9373 83.5798 19.5293C83.3718 20.1053 83.2678 20.6573 83.2678 21.1853C83.2678 21.5373 83.3558 21.9053 83.5318 22.2893C83.7078 22.6733 83.9478 22.8653 84.2518 22.8653C84.5238 22.8653 84.8118 22.7213 85.1158 22.4333C85.4358 22.1453 85.7318 21.8013 86.0038 21.4013C86.2918 21.0013 86.5398 20.6173 86.7478 20.2493C86.9718 19.8813 87.1238 19.6253 87.2038 19.4813C87.2358 19.4013 87.2918 19.3053 87.3718 19.1933C87.4518 19.0653 87.5478 19.0013 87.6598 19.0013C87.7558 19.0013 87.8038 19.0493 87.8038 19.1453C87.8038 19.2253 87.7798 19.3213 87.7318 19.4333C87.6998 19.5293 87.6678 19.6173 87.6358 19.6973C87.4918 20.0333 87.3158 20.3853 87.1078 20.7533C86.8998 21.1213 86.7558 21.3693 86.6758 21.4973C86.4518 21.8653 86.1158 22.2333 85.6678 22.6013C85.2358 22.9853 84.7878 23.1773 84.3238 23.1773ZM94.3759 24.7133C93.1439 24.7133 92.0479 24.4013 91.0879 23.7773C90.1279 23.1693 89.3119 22.3533 88.6399 21.3293C87.9839 20.3053 87.4799 19.1693 87.1279 17.9213C86.7919 16.6573 86.6239 15.3853 86.6239 14.1053C86.6239 12.9853 86.7599 11.9053 87.0319 10.8653C87.3039 9.82529 87.7279 8.89729 88.3039 8.08129C88.8799 7.24929 89.5999 6.59329 90.4639 6.11329C91.3439 5.63329 92.3839 5.39329 93.5839 5.39329C94.7359 5.39329 95.6719 5.60129 96.3919 6.01729C97.1279 6.43329 97.6719 6.96929 98.0239 7.62529C98.3759 8.28129 98.5519 8.96929 98.5519 9.68929C98.5519 10.4093 98.3839 11.1133 98.0479 11.8013C97.7119 12.4733 97.2239 13.0333 96.5839 13.4813C95.9599 13.9133 95.1919 14.1453 94.2799 14.1773C94.1359 14.1773 94.0639 14.1453 94.0639 14.0813C94.0639 13.9533 94.2159 13.8733 94.5199 13.8413C95.1759 13.8253 95.7359 13.6333 96.1999 13.2653C96.6639 12.8813 97.0159 12.4013 97.2559 11.8253C97.4959 11.2333 97.6159 10.6173 97.6159 9.97729C97.6159 9.28929 97.4639 8.62529 97.1599 7.98529C96.8719 7.34529 96.4159 6.81729 95.7919 6.40129C95.1679 5.98529 94.3679 5.77729 93.3919 5.77729C92.4159 5.77729 91.5759 5.99329 90.8719 6.42529C90.1679 6.85729 89.5839 7.44929 89.1199 8.20129C88.6719 8.93729 88.3359 9.77729 88.1119 10.7213C87.8879 11.6653 87.7759 12.6573 87.7759 13.6973C87.7759 14.9613 87.9279 16.2173 88.2319 17.4653C88.5519 18.7133 89.0079 19.8573 89.5999 20.8973C90.1919 21.9213 90.9119 22.7373 91.7599 23.3453C92.6079 23.9693 93.5759 24.2813 94.6639 24.2813C95.3999 24.2813 96.0799 24.1133 96.7039 23.7773C97.3279 23.4573 97.8319 22.9613 98.2159 22.2893C98.6159 21.6333 98.8159 20.8093 98.8159 19.8173C98.8159 19.4653 98.7919 19.0973 98.7439 18.7133C98.6959 18.3293 98.6079 17.9213 98.4799 17.4893C98.4639 17.4413 98.4559 17.3853 98.4559 17.3213C98.4559 17.2093 98.4879 17.1533 98.5519 17.1533C98.6319 17.1533 98.7039 17.2333 98.7679 17.3933C99.0719 18.3053 99.2239 19.1613 99.2239 19.9613C99.2239 20.9053 99.0239 21.7293 98.6239 22.4333C98.2239 23.1533 97.6639 23.7133 96.9439 24.1133C96.2239 24.5133 95.3679 24.7133 94.3759 24.7133ZM102.276 22.2893C101.7 22.2893 101.196 21.9533 100.764 21.2813C100.348 20.5933 100.14 19.5133 100.14 18.0413C100.14 17.0813 100.26 16.3133 100.5 15.7373C100.74 15.1453 101.036 14.7133 101.388 14.4413C101.74 14.1693 102.076 14.0333 102.396 14.0333C102.716 14.0333 102.988 14.1453 103.212 14.3693C103.436 14.5773 103.548 14.8813 103.548 15.2813C103.548 15.6653 103.436 16.0733 103.212 16.5053C102.988 16.9213 102.716 17.3053 102.396 17.6573C102.092 17.9933 101.788 18.2173 101.484 18.3293C101.42 18.3613 101.34 18.3773 101.244 18.3773C101.18 18.3773 101.148 18.3533 101.148 18.3053C101.148 18.1773 101.276 18.0333 101.532 17.8733C101.852 17.6493 102.156 17.3133 102.444 16.8653C102.732 16.4013 102.876 15.9933 102.876 15.6413C102.876 15.4333 102.828 15.2733 102.732 15.1613C102.636 15.0333 102.524 14.9693 102.396 14.9693C102.156 14.9693 101.892 15.1613 101.604 15.5453C101.332 15.9133 101.132 16.5533 101.004 17.4653C100.972 17.7213 100.94 17.9693 100.908 18.2093C100.892 18.4333 100.884 18.6573 100.884 18.8813C100.884 19.7773 101.02 20.4813 101.292 20.9933C101.564 21.4893 101.924 21.7373 102.372 21.7373C102.756 21.7373 103.188 21.5133 103.668 21.0653C104.148 20.6013 104.62 19.8813 105.084 18.9053C105.196 18.6493 105.324 18.5213 105.468 18.5213C105.564 18.5213 105.612 18.5853 105.612 18.7133C105.612 18.8253 105.58 18.9453 105.516 19.0733C105.1 20.0973 104.596 20.8893 104.004 21.4493C103.412 22.0093 102.836 22.2893 102.276 22.2893ZM108.089 23.1773C107.577 23.1773 107.185 22.9373 106.913 22.4573C106.641 21.9933 106.505 21.4813 106.505 20.9213C106.505 20.3933 106.593 19.8413 106.769 19.2653C106.945 18.6893 107.161 18.1213 107.417 17.5613C107.689 17.0013 107.969 16.4893 108.257 16.0253C107.969 16.1373 107.697 16.1933 107.441 16.1933C107.313 16.1933 107.201 16.1773 107.105 16.1453C107.009 16.1133 106.929 16.0893 106.865 16.0733C106.785 16.2653 106.641 16.5853 106.433 17.0333C106.241 17.4813 106.033 17.9533 105.809 18.4493C105.601 18.9293 105.417 19.3373 105.257 19.6733C105.001 20.2173 104.777 20.4893 104.585 20.4893C104.489 20.4893 104.441 20.4253 104.441 20.2973C104.441 20.2013 104.481 20.0733 104.561 19.9133C104.929 19.2253 105.273 18.5453 105.593 17.8733C105.929 17.2013 106.233 16.5533 106.505 15.9293C106.473 15.8493 106.441 15.7453 106.409 15.6173C106.377 15.4733 106.361 15.3213 106.361 15.1613C106.361 14.9853 106.377 14.8013 106.409 14.6093C106.457 14.4013 106.521 14.2013 106.601 14.0093C106.649 13.8973 106.737 13.7373 106.865 13.5293C106.993 13.3053 107.137 13.1053 107.297 12.9293C107.457 12.7373 107.609 12.6413 107.753 12.6413C108.025 12.6413 108.161 12.7853 108.161 13.0733C108.161 13.3453 108.073 13.6573 107.897 14.0093C107.737 14.3613 107.569 14.6893 107.393 14.9933C107.217 15.2813 107.129 15.4973 107.129 15.6413C107.129 15.7693 107.193 15.8333 107.321 15.8333C107.497 15.8333 107.713 15.7453 107.969 15.5693C108.241 15.3773 108.457 15.2013 108.617 15.0413C108.697 14.9613 108.825 14.8413 109.001 14.6813C109.177 14.5053 109.345 14.4173 109.505 14.4173C109.665 14.4173 109.769 14.4653 109.817 14.5613C109.881 14.6573 109.913 14.7693 109.913 14.8973C109.913 15.0413 109.849 15.2253 109.721 15.4493C109.593 15.6573 109.441 15.8653 109.265 16.0733C109.105 16.2813 108.969 16.4573 108.857 16.6013C108.633 16.9373 108.377 17.3613 108.089 17.8733C107.801 18.3853 107.553 18.9373 107.345 19.5293C107.137 20.1053 107.033 20.6573 107.033 21.1853C107.033 21.5373 107.121 21.9053 107.297 22.2893C107.473 22.6733 107.713 22.8653 108.017 22.8653C108.289 22.8653 108.577 22.7213 108.881 22.4333C109.201 22.1453 109.497 21.8013 109.769 21.4013C110.057 21.0013 110.305 20.6173 110.513 20.2493C110.737 19.8813 110.889 19.6253 110.969 19.4813C111.001 19.4013 111.057 19.3053 111.137 19.1933C111.217 19.0653 111.313 19.0013 111.425 19.0013C111.521 19.0013 111.569 19.0493 111.569 19.1453C111.569 19.2253 111.545 19.3213 111.497 19.4333C111.465 19.5293 111.433 19.6173 111.401 19.6973C111.257 20.0333 111.081 20.3853 110.873 20.7533C110.665 21.1213 110.521 21.3693 110.441 21.4973C110.217 21.8653 109.881 22.2333 109.433 22.6013C109.001 22.9853 108.553 23.1773 108.089 23.1773ZM113.582 13.9613C113.438 13.9613 113.334 13.8893 113.27 13.7453C113.222 13.5853 113.198 13.4733 113.198 13.4093C113.198 13.1533 113.27 12.9133 113.414 12.6893C113.574 12.4493 113.75 12.3213 113.942 12.3053H114.014C114.206 12.3053 114.334 12.3533 114.398 12.4493C114.478 12.5293 114.518 12.6333 114.518 12.7613C114.518 13.0013 114.414 13.2653 114.206 13.5533C113.998 13.8253 113.79 13.9613 113.582 13.9613ZM112.358 22.5533C111.814 22.5533 111.446 22.3453 111.254 21.9293C111.062 21.5133 110.966 21.0333 110.966 20.4893C110.966 19.9453 111.022 19.3773 111.134 18.7853C111.262 18.1773 111.398 17.6253 111.542 17.1293C111.702 16.6333 111.822 16.2813 111.902 16.0733C112.078 15.7053 112.254 15.3933 112.43 15.1373C112.606 14.8653 112.798 14.7293 113.006 14.7293C113.15 14.7293 113.254 14.7853 113.318 14.8973C113.398 14.9933 113.438 15.1213 113.438 15.2813C113.438 15.6013 113.35 15.9293 113.174 16.2653C112.998 16.5853 112.838 16.8893 112.694 17.1773C112.374 17.8333 112.118 18.4173 111.926 18.9293C111.75 19.4413 111.662 20.0813 111.662 20.8493C111.662 21.3453 111.71 21.7053 111.806 21.9293C111.918 22.1533 112.07 22.2653 112.262 22.2653C112.518 22.2653 112.814 22.1213 113.15 21.8333C113.486 21.5293 113.83 21.1293 114.182 20.6333C114.534 20.1373 114.846 19.6013 115.118 19.0253C115.294 18.6573 115.43 18.4733 115.526 18.4733C115.59 18.4733 115.622 18.5373 115.622 18.6653C115.622 18.8413 115.55 19.0973 115.406 19.4333C115.278 19.7533 115.118 20.0813 114.926 20.4173C114.75 20.7533 114.582 21.0173 114.422 21.2093C114.15 21.5613 113.838 21.8733 113.486 22.1453C113.134 22.4173 112.758 22.5533 112.358 22.5533ZM117.087 25.8173C116.927 25.8173 116.759 25.7133 116.583 25.5053C116.423 25.3133 116.271 25.0413 116.127 24.6893C115.887 24.1133 115.719 23.5053 115.623 22.8653C115.527 22.2413 115.479 21.6093 115.479 20.9693C115.479 20.2653 115.527 19.5773 115.623 18.9053C115.719 18.2333 115.823 17.6253 115.935 17.0813C116.015 16.6973 116.111 16.2893 116.223 15.8573C116.335 15.4253 116.439 15.0813 116.535 14.8253C116.439 14.8413 116.287 14.8973 116.079 14.9933C115.871 15.0893 115.655 15.1853 115.431 15.2813C115.223 15.3773 115.039 15.4253 114.879 15.4253C114.639 15.4253 114.519 15.2893 114.519 15.0173C114.519 14.8733 114.567 14.7453 114.663 14.6333C114.775 14.5213 114.911 14.4333 115.071 14.3693C115.391 14.2253 115.743 14.1213 116.127 14.0573C116.511 13.9773 116.767 13.8973 116.895 13.8173L117.519 12.2333C117.583 12.0733 117.695 11.8173 117.855 11.4653C118.031 11.0973 118.231 10.7053 118.455 10.2893C118.695 9.87329 118.927 9.49729 119.151 9.16129C119.327 8.90529 119.495 8.70529 119.655 8.56129C119.815 8.40129 119.991 8.32129 120.183 8.32129C120.471 8.32129 120.615 8.43329 120.615 8.65729C120.615 8.78529 120.559 8.97729 120.447 9.23329C120.351 9.48929 120.167 9.82529 119.895 10.2413C119.591 10.7213 119.279 11.2013 118.959 11.6813C118.655 12.1453 118.391 12.6333 118.167 13.1453C118.151 13.2093 118.111 13.3133 118.047 13.4573C117.999 13.5853 117.959 13.6653 117.927 13.6973L118.407 13.6253C118.535 13.6093 118.679 13.6013 118.839 13.6013C118.999 13.5853 119.175 13.5773 119.367 13.5773C119.639 13.5773 119.895 13.5933 120.135 13.6253C120.391 13.6413 120.599 13.6813 120.759 13.7453C120.839 13.7773 120.911 13.8173 120.975 13.8653C121.055 13.8973 121.095 13.9293 121.095 13.9613C121.095 14.0253 120.887 14.0573 120.471 14.0573C120.231 14.0573 119.887 14.0973 119.439 14.1773C119.007 14.2573 118.511 14.3853 117.951 14.5613C117.679 14.6413 117.495 14.7533 117.399 14.8973C117.303 15.0413 117.175 15.3853 117.015 15.9293C116.775 16.7933 116.583 17.6253 116.439 18.4253C116.295 19.2093 116.183 20.0093 116.103 20.8253C116.087 20.9853 116.071 21.1533 116.055 21.3293C116.055 21.5053 116.055 21.6973 116.055 21.9053C116.055 22.4493 116.103 23.0173 116.199 23.6093C116.311 24.2013 116.471 24.7133 116.679 25.1453C116.727 25.2413 116.775 25.3293 116.823 25.4093C116.887 25.4893 116.959 25.5453 117.039 25.5773C117.151 25.6253 117.207 25.6813 117.207 25.7453C117.207 25.7933 117.167 25.8173 117.087 25.8173ZM119.87 21.7853C119.582 21.7853 119.374 21.6653 119.246 21.4253C119.118 21.1693 119.054 20.8733 119.054 20.5373C119.054 20.1053 119.126 19.6013 119.27 19.0253C119.43 18.4493 119.638 17.8573 119.894 17.2493C120.15 16.6253 120.438 16.0573 120.758 15.5453C121.094 15.0173 121.446 14.5933 121.814 14.2733C122.182 13.9373 122.542 13.7693 122.894 13.7693C123.214 13.7693 123.486 13.9133 123.71 14.2013C123.95 14.4733 124.07 14.7853 124.07 15.1373C124.07 15.3453 124.038 15.5213 123.974 15.6653C123.91 15.7933 123.838 15.8573 123.758 15.8573C123.694 15.8573 123.638 15.8093 123.59 15.7133C123.43 15.3453 123.254 15.0813 123.062 14.9213C122.886 14.7613 122.702 14.6813 122.51 14.6813C122.19 14.6813 121.87 14.8653 121.55 15.2333C121.246 15.5853 120.998 15.9933 120.806 16.4573C120.646 16.8093 120.494 17.2333 120.35 17.7293C120.222 18.2093 120.11 18.6893 120.014 19.1693C119.934 19.6333 119.894 20.0173 119.894 20.3213C119.894 20.8653 120.022 21.1373 120.278 21.1373C120.598 21.1373 121.006 20.7853 121.502 20.0813C121.87 19.5693 122.198 18.9773 122.486 18.3053C122.79 17.6333 123.046 17.0493 123.254 16.5533C123.334 16.3933 123.422 16.2893 123.518 16.2413C123.614 16.1933 123.702 16.1693 123.782 16.1693C123.974 16.1693 124.094 16.2493 124.142 16.4093C124.206 16.5693 124.238 16.7053 124.238 16.8173C124.238 17.2333 124.198 17.6093 124.118 17.9453C124.038 18.2653 123.998 18.6573 123.998 19.1213C123.998 19.4573 124.022 19.7693 124.07 20.0573C124.134 20.3293 124.238 20.4653 124.382 20.4653C124.558 20.4653 124.782 20.2413 125.054 19.7933C125.118 19.6653 125.214 19.6013 125.342 19.6013C125.486 19.6013 125.558 19.6733 125.558 19.8173C125.558 20.0253 125.414 20.2493 125.126 20.4893C124.838 20.7133 124.55 20.8253 124.262 20.8253C123.878 20.8253 123.606 20.6653 123.446 20.3453C123.174 19.8173 123.038 19.3453 123.038 18.9293C123.038 18.4973 123.03 18.2013 123.014 18.0413C122.934 18.2333 122.782 18.5373 122.558 18.9533C122.334 19.3533 122.07 19.7773 121.766 20.2253C121.462 20.6573 121.142 21.0253 120.806 21.3293C120.47 21.6333 120.158 21.7853 119.87 21.7853Z" fill="black"/>
<defs>
<linearGradient id="paint0_linear_242_5598" x1="28.0572" y1="12.2468" x2="1.9691" y2="12.2468" gradientUnits="userSpaceOnUse">
<stop stop-color="#161490"/>
<stop offset="0.510417" stop-color="#7476ED"/>
<stop offset="1" stop-color="#E56F8C"/>
</linearGradient>
</defs>
</svg>
